<?xml version="1.0" encoding="UTF-8"?>
<svg xmlns="http://www.w3.org/2000/svg" width="122" height="122" viewBox="0 0 122 122" fill="none"><rect width="122" height="122" fill="#C26148"/><path d="M41.36 71.78V58H62.55C66.8833 58 70.22 56.9167 72.56 54.75C74.9867 52.4967 76.2 49.42 76.2 45.52C76.2 41.9667 74.9867 39.02 72.56 36.68C70.22 34.2533 66.8833 33.04 62.55 33.04H41.36V18.61H64.11C70.0033 18.61 75.16 19.78 79.58 22.12C84.0867 24.3733 87.5533 27.4933 89.98 31.48C92.4933 35.4667 93.75 40.06 93.75 45.26C93.75 50.6333 92.4933 55.3133 89.98 59.3C87.5533 63.2 84.0867 66.2767 79.58 68.53C75.0733 70.6967 69.83 71.78 63.85 71.78H41.36ZM28.36 110V18.61H46.04V110H28.36ZM78.28 110L48.12 70.48L64.37 65.41L99.73 110H78.28Z" fill="white"/></svg>