<svg width="800" height="452" viewBox="0 0 800 452" fill="none" xmlns="http://www.w3.org/2000/svg">
<path fill-rule="evenodd" clip-rule="evenodd" d="M572.895 0C623.475 0 664.853 41.0618 664.853 91.2564C664.853 141.451 623.475 182.513 572.895 182.513C562.748 182.513 554.438 190.761 554.438 200.83C554.438 210.899 562.748 219.146 572.895 219.146H621.013C645.687 219.146 665.879 239.184 665.879 263.67C665.879 288.156 645.687 308.193 621.013 308.193C599.672 308.193 582.21 325.522 582.21 346.7C582.21 385.339 550.355 416.952 511.418 416.952H95.8465C45.2657 416.952 3.88813 375.89 3.88813 325.696C3.88813 275.501 45.2657 234.439 95.8465 234.439H104.741C114.889 234.439 123.199 226.202 123.199 216.122C123.199 206.053 114.898 197.806 104.741 197.806H44.8659C20.1901 197.806 0 177.768 0 153.282C0 128.826 20.1399 108.809 44.7724 108.759H92.9532C114.294 108.759 131.756 91.4298 131.756 70.2518C131.756 31.6132 163.612 0 202.548 0H572.895V0Z" fill="url(#paint0_linear_182_1561)"/>
<path d="M393.941 199.85L377.292 194.786L304.913 192.655L288.59 197.111L290.72 236.886L327.649 260.447L363.467 259.729L385.985 239.211L390.985 218.868L393.941 199.85Z" fill="#F8AE9D"/>
<path d="M184.978 263.816C190.216 253.013 195.237 244.341 199.715 237.495C208.505 224.004 221.95 214.217 237.49 210L296.522 194.003C296.522 194.003 299.587 252.992 340.188 252.992C380.789 252.992 388.701 197.676 388.701 197.676L457.014 224.932C459.361 225.844 475.206 231.322 493.637 270.857C511.2 308.503 518.873 327.782 518.873 327.782L448.494 348.104L444.104 411.396L445.603 447.543L231.99 447.064L233.186 405.745L232.295 342.387L229.622 346.713L158.527 318.197C158.527 318.197 167.677 299.417 184.978 263.816V263.816Z" fill="#B6B9B3"/>
<path d="M347.088 220.895C329.762 220.575 310.081 186.781 310.081 186.781L308.95 99.9739C308.045 74.9715 323.598 53.6688 351.63 53.5522L354.232 53.6688C380.323 54.9142 400.985 73.8114 401.683 97.0982C402.343 118.771 402.738 142.713 401.89 154.28C400.117 178.223 372.802 174.182 372.802 174.182C372.745 174.182 372.876 186.243 372.802 193.288C372.594 209.108 354.044 221.433 347.088 220.895Z" fill="#F8AE9D"/>
<path d="M317.607 104.736C317.13 104.508 298.469 98.2771 298.053 116.709C297.635 135.142 317.171 131.743 317.21 131.213C317.249 130.684 317.607 104.736 317.607 104.736V104.736ZM512.81 329.543L541.435 386.989C544.633 393.407 546.13 400.539 545.783 407.702C544.696 430.002 526.287 447.543 503.965 447.543L421.203 446.242L418.285 405.333L480.751 390.271L457.081 345.518L512.81 329.543V329.543ZM162.158 319.653C162.158 319.653 144.401 372.405 125.035 420.353C124.643 421.308 124.209 423.092 123.861 424.069C119.492 435.958 132.641 447.543 145.923 447.543L257.837 447.348V410.963L188.219 396.183L213.432 340.193L162.158 319.653Z" fill="#F8AE9D"/>
<path d="M386.462 409.288C386.441 409.418 383.897 408.614 379.659 408.353C375.443 408.071 369.465 408.549 363.51 411.092C357.554 413.635 353.055 417.613 350.361 420.851C347.622 424.09 346.448 426.502 346.34 426.415C346.296 426.393 346.556 425.785 347.143 424.741C347.73 423.698 348.665 422.221 349.991 420.547C352.643 417.178 357.164 413.049 363.249 410.462C369.335 407.876 375.443 407.441 379.702 407.876C381.833 408.071 383.55 408.418 384.702 408.723C385.854 409.005 386.484 409.245 386.462 409.288V409.288ZM382.636 400.486C382.593 400.659 380.007 399.377 375.551 399.246C371.117 399.051 364.879 400.398 359.054 403.92C353.23 407.462 348.86 411.94 345.775 415.156C344.296 416.721 343.079 418.025 342.122 419.025C341.253 419.939 340.775 420.437 340.732 420.394C340.688 420.372 341.123 419.807 341.927 418.852C343.059 417.488 344.218 416.148 345.405 414.831C348.425 411.527 352.773 406.941 358.706 403.332C364.64 399.746 371.052 398.442 375.573 398.769C377.834 398.899 379.637 399.311 380.833 399.724C381.441 399.898 381.876 400.116 382.181 400.246C382.485 400.376 382.636 400.463 382.636 400.486Z" fill="#EB996E"/>
<path d="M234.294 404.289H250.358C250.358 404.289 286.611 391.183 294.066 392.443C300.783 393.574 325.365 409.897 330.19 413.135C330.733 413.505 331.125 414.005 331.363 414.613C331.836 415.892 331.795 417.304 331.247 418.553C330.7 419.802 329.69 420.789 328.429 421.308L327.929 421.525L328.147 422.264C328.429 423.177 328.561 424.199 328.516 425.199C328.343 428.655 323.691 429.697 321.931 426.72L322.866 428.372C323.235 429.045 323.431 429.807 323.387 430.567L323.3 432.067C323.253 432.879 322.963 433.657 322.466 434.301C321.97 434.945 321.291 435.423 320.518 435.675C319.783 435.919 318.993 435.944 318.245 435.748C317.496 435.551 316.821 435.14 316.301 434.566C313.194 431.132 306.456 424.264 301.891 423.504C297.849 422.829 291.089 422.742 287.003 422.764C285.99 422.765 285.002 423.074 284.168 423.648C283.334 424.222 282.693 425.036 282.33 425.981C285.024 426.176 303.869 436 310.542 439.522C312.607 440.609 314.149 442.565 314.411 444.89C314.649 446.977 313.606 449.173 309.477 448.194C300.609 446.129 284.677 438.804 284.677 438.804C284.677 438.804 276.461 436.457 271.136 440.218C263.638 445.499 260.203 447.433 253.77 445.304C247.336 443.173 242.598 440.109 242.598 440.109L229.927 438.847C229.883 438.847 217.907 408.897 234.294 404.289V404.289Z" fill="#F8AE9D"/>
<path d="M282.177 410.419C282.2 410.549 284.743 409.746 288.981 409.484C293.198 409.202 299.175 409.681 305.131 412.223C311.086 414.767 315.585 418.744 318.28 421.982C321.019 425.221 322.193 427.633 322.301 427.546C322.345 427.525 322.083 426.916 321.496 425.873C320.658 424.403 319.706 423 318.649 421.678C315.998 418.309 311.477 414.18 305.391 411.593C299.305 409.007 293.198 408.572 288.937 409.007C287.251 409.153 285.579 409.436 283.939 409.854C282.787 410.159 282.156 410.376 282.177 410.419V410.419ZM286.003 401.617C286.047 401.791 288.632 400.508 293.088 400.377C297.523 400.182 303.761 401.529 309.585 405.051C315.41 408.594 319.779 413.071 322.865 416.287C324.344 417.853 325.561 419.156 326.518 420.156C327.386 421.07 327.865 421.569 327.908 421.525C327.951 421.504 327.518 420.938 326.713 419.983C325.581 418.619 324.422 417.278 323.235 415.962C320.214 412.658 315.867 408.072 309.934 404.464C303.999 400.877 297.588 399.573 293.067 399.9C290.806 400.03 289.002 400.442 287.807 400.855C287.199 401.03 286.763 401.247 286.46 401.377C286.155 401.507 286.003 401.595 286.003 401.617V401.617Z" fill="#EB996E"/>
<path d="M256.031 448.565H424.673C426.98 448.567 429.198 447.677 430.863 446.081C432.528 444.485 433.51 442.306 433.605 440.001L438.67 323.935C438.888 318.849 434.824 314.589 429.738 314.589H251.292C246.206 314.589 242.141 318.827 242.338 323.913L247.076 440.001C247.271 444.783 251.227 448.565 256.031 448.565Z" fill="#444642"/>
<path d="M323.474 383.724C323.472 385.989 323.917 388.233 324.783 390.326C325.649 392.419 326.919 394.321 328.521 395.923C330.122 397.525 332.024 398.795 334.117 399.661C336.211 400.528 338.454 400.972 340.719 400.971C342.985 400.973 345.228 400.528 347.322 399.662C349.415 398.796 351.317 397.526 352.919 395.924C354.521 394.322 355.791 392.42 356.657 390.326C357.523 388.233 357.968 385.99 357.966 383.724C357.968 381.459 357.523 379.216 356.657 377.122C355.791 375.029 354.52 373.127 352.918 371.526C351.316 369.924 349.414 368.654 347.321 367.788C345.228 366.922 342.985 366.477 340.719 366.479C331.184 366.479 323.474 374.23 323.474 383.724Z" fill="white"/>
<path d="M324.128 138.318H308.913V203.523H324.128V138.318Z" fill="#F8AE9D"/>
<path d="M318.155 80.0558C320.897 83.5929 325.732 84.3722 329.715 85.0728C335.068 86.012 337.718 87.9703 340.497 93.2272C342.257 96.584 344.017 100.262 347.167 102.081C349.727 103.566 349.634 99.7796 350.04 96.8483C350.078 96.5886 350.13 96.3311 350.197 96.0772C350.816 93.7367 353.308 94.1352 354.039 96.4445C354.706 98.5234 356.133 100.282 357.949 101.261C358.244 101.421 358.56 101.56 358.874 101.501C359.3 101.441 359.633 101.041 359.911 100.682C360.494 99.9287 361.072 98.9706 361.67 97.9582C363.634 94.6285 367.351 95.8184 369.545 99.0031C370.915 100.982 372.546 103.02 374.787 103.479C375.51 103.639 376.418 103.52 376.751 102.821C377.178 101.96 376.511 101.101 376.622 100.221C376.714 99.4029 377.067 99.0424 377.456 98.3431C378.982 95.6286 382.475 95.531 384.623 97.7861C386.118 99.3537 387.676 100.86 389.293 102.3C389.978 102.901 390.978 103.5 391.664 102.901C392.035 102.581 392.127 102.04 392.202 101.521C392.591 98.9828 392.961 96.4445 393.35 93.9061C393.572 92.4872 394.332 90.6279 395.629 90.9883C396.258 91.1686 396.629 91.8272 396.98 92.4276C397.407 93.1865 405.021 101.841 405.169 101.181C406.354 96.2642 408.782 91.7879 409.967 86.8712C417.637 55.2322 383.606 29.7894 357.614 29.6498C351.835 29.6105 346.555 29.704 340.942 31.0429C334.957 32.4822 328.641 34.7671 323.213 37.9844C315.599 42.481 309.837 50.6557 311.32 60.4092" fill="#444642"/>
<path d="M331.821 69.3598C335.645 73.5596 336.658 79.467 337.014 85.0478C337.539 93.4637 336.827 102.208 332.814 109.679C331.672 111.807 330.828 122.331 329.066 121.75C328.503 121.568 328.597 113.406 327.116 109.007C324.828 102.19 314.293 99.5906 309.549 103.899C301.976 110.752 306.419 119.077 308.931 124.258C310.432 127.385 312.811 130.893 313.225 134.202C313.73 138.438 313.881 153.871 311.031 157.471C308.649 160.487 306.119 145.909 303.963 143.036C288.009 121.641 272.712 67.1602 299.952 55.3441C304.094 53.5443 316.88 52.6174 320.761 54.9077" fill="#444642"/>
<path fill-rule="evenodd" clip-rule="evenodd" d="M508.806 83.3041H513.879C515.105 83.3041 516.093 82.3067 516.093 81.0897V76.0171C516.093 74.7907 515.096 73.8027 513.879 73.8027H508.806C508.22 73.8048 507.658 74.0388 507.243 74.4537C506.828 74.8685 506.594 75.4305 506.592 76.0171V81.0897C506.591 81.3807 506.648 81.669 506.759 81.938C506.87 82.207 507.033 82.4514 507.239 82.6571C507.445 82.8629 507.689 83.026 507.958 83.137C508.227 83.2481 508.515 83.3049 508.806 83.3041V83.3041ZM526.396 83.3041H531.468C532.055 83.302 532.617 83.068 533.032 82.6532C533.446 82.2384 533.68 81.6764 533.683 81.0897V76.0171C533.683 74.7907 532.685 73.8027 531.468 73.8027H526.396C525.809 73.8048 525.247 74.0388 524.832 74.4537C524.417 74.8685 524.183 75.4305 524.181 76.0171V81.0897C524.183 81.6764 524.417 82.2384 524.832 82.6532C525.247 83.068 525.809 83.302 526.396 83.3041V83.3041ZM543.996 83.3041H549.068C549.655 83.302 550.217 83.068 550.632 82.6532C551.047 82.2384 551.281 81.6764 551.283 81.0897V76.0171C551.283 74.7907 550.285 73.8027 549.068 73.8027H543.996C543.409 73.8048 542.847 74.0388 542.432 74.4537C542.018 74.8685 541.784 75.4305 541.781 76.0171V81.0897C541.781 81.3807 541.837 81.669 541.949 81.938C542.06 82.207 542.223 82.4514 542.428 82.6571C542.634 82.8629 542.879 83.026 543.148 83.137C543.417 83.2481 543.705 83.3049 543.996 83.3041V83.3041ZM561.585 83.3041H566.658C567.244 83.302 567.806 83.068 568.221 82.6532C568.636 82.2384 568.87 81.6764 568.872 81.0897V76.0171C568.872 74.7907 567.875 73.8027 566.658 73.8027H561.585C560.359 73.8027 559.36 74.8001 559.36 76.0171V81.0897C559.366 81.6769 559.603 82.2381 560.019 82.6523C560.436 83.0665 560.998 83.3006 561.585 83.3041V83.3041ZM579.176 83.3041H584.249C585.475 83.3041 586.474 82.3067 586.474 81.0897V76.0171C586.474 74.7907 585.475 73.8027 584.249 73.8027H579.176C578.589 73.8048 578.027 74.0388 577.613 74.4537C577.198 74.8685 576.964 75.4305 576.962 76.0171V81.0897C576.964 81.6764 577.198 82.2384 577.613 82.6532C578.027 83.068 578.589 83.302 579.176 83.3041V83.3041ZM527.041 64.1251H532.113C533.329 64.1251 534.328 63.1263 534.328 61.9106V56.8259C534.325 56.2395 534.091 55.6778 533.676 55.2633C533.261 54.8487 532.7 54.6149 532.113 54.6128H527.041C525.813 54.6128 524.826 55.6102 524.826 56.8259V61.8998C524.824 62.1916 524.88 62.4809 524.991 62.751C525.102 63.0211 525.264 63.2666 525.47 63.4735C525.676 63.6803 525.921 63.8444 526.19 63.9562C526.46 64.068 526.749 64.1254 527.041 64.1251V64.1251ZM544.63 64.1251H549.703C550.289 64.1229 550.851 63.8889 551.266 63.4741C551.681 63.0593 551.915 62.4973 551.917 61.9106V56.8259C551.915 56.2395 551.68 55.6778 551.266 55.2633C550.851 54.8487 550.289 54.6149 549.703 54.6128H544.63C544.044 54.6149 543.482 54.8487 543.067 55.2633C542.652 55.6778 542.418 56.2395 542.416 56.8259V61.8998C542.414 62.1916 542.47 62.4809 542.58 62.751C542.691 63.0211 542.854 63.2666 543.06 63.4735C543.265 63.6803 543.51 63.8444 543.78 63.9562C544.049 64.068 544.338 64.1254 544.63 64.1251V64.1251ZM562.219 64.1251H567.292C568.52 64.1251 569.517 63.1263 569.517 61.9106V56.8259C569.517 55.6102 568.52 54.6128 567.292 54.6128H562.219C561.633 54.6149 561.071 54.8487 560.656 55.2633C560.242 55.6778 560.008 56.2395 560.005 56.8259V61.8998C560.005 63.1263 561.004 64.1251 562.219 64.1251V64.1251ZM543.996 103.91H549.068C549.655 103.908 550.217 103.674 550.632 103.259C551.047 102.844 551.281 102.282 551.283 101.696V96.6219C551.283 95.3954 550.285 94.4075 549.068 94.4075H543.996C543.409 94.4096 542.847 94.6436 542.432 95.0584C542.018 95.4732 541.784 96.0352 541.781 96.6219V101.696C541.781 101.987 541.837 102.275 541.949 102.544C542.06 102.813 542.223 103.057 542.428 103.263C542.634 103.469 542.879 103.632 543.148 103.743C543.417 103.854 543.705 103.911 543.996 103.91V103.91ZM561.585 103.91H566.658C567.244 103.908 567.806 103.674 568.221 103.259C568.636 102.844 568.87 102.282 568.872 101.696V96.6219C568.872 95.3954 567.875 94.4075 566.658 94.4075H561.585C560.359 94.4075 559.36 95.4063 559.36 96.6219V101.696C559.366 102.283 559.603 102.844 560.019 103.258C560.436 103.673 560.998 103.907 561.585 103.91V103.91Z" fill="#E1E4E5"/>
<path d="M592.894 202.631C593.205 192.883 595.417 182.917 599.312 173.603C650.031 191.392 635.17 170.498 604.483 163.419C612.739 149.604 625.263 138.397 641.65 133.212C661.496 126.94 685.017 141.222 700.189 162.303C676.325 172.205 681.403 203.718 706.14 171.647C711.093 180.526 714.489 190.089 715.641 199.62C718.539 223.091 707.728 246.127 672.742 256.373C616.354 272.982 591.648 239.359 592.894 202.631V202.631ZM628.347 190.647C613.456 191.082 634.298 207.754 645.452 199.682C652.43 194.591 643.27 190.212 628.347 190.647Z" fill="#888F82"/>
<path d="M686.355 442.37C688.816 252.336 641.68 133.242 641.68 133.242" stroke="#888F82" stroke-width="2.5" stroke-miterlimit="10"/>
<path d="M698.966 214.986C706.755 247.865 715.446 229.547 706.038 207.939C721.335 194.837 743.766 188.008 768.658 195.303C788.753 201.202 798.285 215.421 799.844 231.441C767.662 229.888 759.811 250.441 800 239.047C798.098 274.875 760.247 314.459 713.079 290.087C678.466 272.205 679.433 237.837 698.966 214.986ZM745.604 258.823C762.677 263.388 763.517 250.814 748.595 249.075C737.971 247.834 728.531 254.26 745.604 258.823Z" fill="#888F82"/>
<path d="M701.061 382.049C693.24 262.738 761.53 202.663 761.53 202.663" stroke="#888F82" stroke-width="2.5" stroke-miterlimit="10"/>
<path d="M564.594 285.198C548.02 263.589 547.614 228.228 560.356 217.672C572.414 207.676 587.803 206.464 602.634 210.562C598.863 233.04 617.244 242.913 612.852 214.288C647.402 229.718 673.228 271.538 634.785 292.214C605.5 307.924 584.563 304.044 570.95 292.091C620.547 288.924 595.155 275.542 564.594 285.198ZM577.554 248.843C563.098 253.096 565.124 257.629 581.137 258.839C597.119 260.051 596.215 243.41 577.554 248.843Z" fill="#888F82"/>
<path d="M658.817 380.96C663.585 262.735 570.246 219.518 570.246 219.518" stroke="#888F82" stroke-width="2.5" stroke-miterlimit="10"/>
<path d="M753.337 367.964H606.108L626.386 425.23C631.578 439.885 645.507 449.72 661.123 449.72H698.352C713.971 449.72 727.897 439.914 733.088 425.231L735.644 426.135L733.088 425.231L753.337 367.964V367.964Z" fill="white" stroke="#E1E4E5" stroke-width="4"/>
<path d="M774.13 365.957V357.126H587.144V365.957H774.13Z" fill="#E1E4E5" stroke="#E1E4E5" stroke-width="4"/>
<path d="M26.4244 369.125L32.6245 446.246H75.5294L81.7431 369.125H26.4244Z" fill="#B6B9B3"/>
<path d="M22.8766 362.171H85.9485V373.411H22.8766V362.171ZM27.1984 362.171H81.6281L78.4501 349.534H30.39L27.1984 362.171Z" fill="#888F82"/>
<path d="M41.7977 408.401C41.7974 410.058 42.1234 411.698 42.7572 413.229C43.391 414.759 44.3202 416.15 45.4916 417.321C46.663 418.493 48.0538 419.422 49.5844 420.056C51.115 420.69 52.7555 421.016 54.4121 421.015C56.0688 421.016 57.7092 420.69 59.2398 420.056C60.7704 419.422 62.1612 418.493 63.3326 417.321C64.504 416.15 65.4332 414.759 66.067 413.229C66.7008 411.698 67.0268 410.058 67.0265 408.401C67.027 406.744 66.7011 405.104 66.0674 403.573C65.4336 402.042 64.5045 400.652 63.333 399.48C62.1616 398.309 60.7707 397.379 59.2401 396.746C57.7094 396.112 56.0688 395.786 54.4121 395.787C52.7555 395.786 51.115 396.112 49.5844 396.746C48.0538 397.38 46.663 398.309 45.4916 399.48C44.3202 400.652 43.391 402.043 42.7572 403.573C42.1234 405.104 41.7974 406.744 41.7977 408.401V408.401Z" fill="white"/>
<path fill-rule="evenodd" clip-rule="evenodd" d="M154.98 119.109V54.8238C154.98 48.1643 149.597 42.7705 142.951 42.7705H70.7832C64.1372 42.7705 58.7542 48.1643 58.7542 54.8238V119.109C58.7535 121.257 59.3269 123.366 60.4151 125.219C61.5033 127.071 63.0667 128.599 64.9435 129.644L101.028 149.73C102.814 150.726 104.825 151.248 106.87 151.248C108.915 151.248 110.926 150.726 112.712 149.73L148.798 129.644C150.672 128.597 152.234 127.068 153.32 125.216C154.407 123.364 154.98 121.256 154.98 119.109Z" fill="#E1E4E5"/>
<path d="M126.868 114.13H86.8646M126.868 95.9278H86.8646H126.868ZM126.868 77.1865H86.8646H126.868Z" stroke="white" stroke-width="2.677" stroke-linecap="round" stroke-linejoin="round"/>
<path d="M104.246 293.916L128.949 318.618C129.849 319.518 129.849 320.977 128.949 321.876C128.05 322.776 126.591 322.775 125.692 321.876L100.989 297.173C100.089 296.273 100.089 294.815 100.988 293.915C101.888 293.016 103.346 293.016 104.246 293.916Z" fill="#E1E4E5"/>
<path d="M106.668 311.602L113.792 318.726C114.691 319.626 114.692 321.084 113.792 321.984C112.893 322.883 111.434 322.883 110.534 321.983L103.411 314.859C102.511 313.959 102.511 312.501 103.41 311.602C104.31 310.702 105.768 310.702 106.668 311.602Z" fill="#E1E4E5"/>
<defs>
<linearGradient id="paint0_linear_182_1561" x1="318.742" y1="650.721" x2="326.792" y2="-453.665" gradientUnits="userSpaceOnUse">
<stop stop-color="white"/>
<stop offset="1" stop-color="#EEEEEE"/>
</linearGradient>
</defs>
</svg>
