<svg width="962" height="600" viewBox="0 0 962 600" fill="none" xmlns="http://www.w3.org/2000/svg">
<rect width="962" height="600" fill="#CBD0D0"/>
<path d="M479.499 495.155C589.66 495.155 678.962 411.168 678.962 307.564C678.962 203.961 589.66 119.973 479.499 119.973C369.338 119.973 280.036 203.961 280.036 307.564C280.036 411.168 369.338 495.155 479.499 495.155Z" fill="white"/>
<path d="M574.653 334.222C573.296 339.284 569.522 343.584 563.571 346.975C557.614 350.37 549.58 352.787 539.975 354.085C520.772 356.679 495.608 354.762 469.067 347.65C442.525 340.539 419.774 329.616 404.442 317.768C396.773 311.842 391.023 305.732 387.561 299.814C384.103 293.901 382.984 288.289 384.341 283.228C385.697 278.166 389.471 273.866 395.422 270.474C401.38 267.08 409.414 264.663 419.018 263.365C438.221 260.77 463.385 262.688 489.927 269.8C516.468 276.911 539.22 287.833 554.552 299.681C562.221 305.607 567.971 311.717 571.432 317.636C574.891 323.549 576.009 329.161 574.653 334.222V334.222Z" stroke="#888F82" stroke-width="4"/>
<path d="M628.447 347.475C622.399 370.048 600.55 386.423 569.471 394.37C538.447 402.302 498.573 401.717 457.236 390.64C415.9 379.564 381.075 360.135 358.174 337.753C335.232 315.332 324.498 290.225 330.547 267.653C336.595 245.08 358.443 228.704 389.522 220.758C420.546 212.825 460.42 213.412 501.757 224.488C543.093 235.564 577.919 254.994 600.82 277.375C623.761 299.796 634.495 324.902 628.447 347.475V347.475Z" stroke="#888F82" stroke-width="4"/>
<path d="M674.486 353.767C665.46 387.455 635.841 412.435 594.824 425.412C553.827 438.384 501.656 439.274 448.057 424.913C394.458 410.552 349.722 383.695 320.703 351.962C291.67 320.215 278.51 283.772 287.536 250.084C296.563 216.396 326.181 191.416 367.198 178.439C408.196 165.467 460.368 164.577 513.965 178.938C567.564 193.3 612.301 220.157 641.32 251.89C670.353 283.637 683.514 320.079 674.486 353.767Z" stroke="#888F82" stroke-width="4"/>
<path d="M521.205 246.478C555.022 269.569 563.756 315.636 540.722 349.37C517.688 383.104 471.603 391.74 437.785 368.649C403.968 345.559 395.234 299.491 418.268 265.757C441.302 232.023 487.388 223.387 521.205 246.478V246.478Z" stroke="#888F82" stroke-width="4"/>
<path d="M707.601 488.08C707.601 488.08 674.27 461.68 652.304 458.654C630.572 455.66 573.284 459.169 530.774 441.15C530.376 440.984 530.048 440.684 529.846 440.303C529.645 439.921 529.583 439.481 529.672 439.058C530.347 435.981 533.536 429.428 548.862 430.064C568.811 430.926 584.101 431.189 584.101 431.189C584.101 431.189 522.819 370.615 507.433 352.966C504.394 349.484 502.34 346.342 501 343.486C496.827 334.578 508.275 326.577 515.367 333.398L556.879 373.297C556.879 373.297 554.916 367.044 559.301 363.163C563.457 359.503 573.984 361.52 580.131 368.149C580.131 368.149 578.519 360.942 585.449 357.748C592.378 354.555 601.482 360.073 605.345 363.653C605.345 363.653 602.316 357.112 606.643 353.375C610.97 349.636 622.443 353.279 625.52 355.478C628.598 357.677 657.33 371.431 688.46 409.974L749.453 428.866C749.453 428.866 757.99 451.438 707.601 488.08ZM254.399 121.705C254.399 121.705 287.731 148.104 309.696 151.131C331.428 154.124 388.716 150.615 431.226 168.635C431.624 168.8 431.953 169.1 432.154 169.482C432.356 169.864 432.417 170.304 432.328 170.727C431.654 173.804 428.464 180.357 413.138 179.72C393.189 178.859 377.899 178.595 377.899 178.595C377.899 178.595 439.181 239.17 454.567 256.818C457.606 260.301 459.661 263.443 461 266.299C465.174 275.207 453.726 283.208 446.633 276.387L405.121 236.488C405.121 236.488 407.084 242.741 402.7 246.622C398.544 250.282 388.017 248.264 381.869 241.636C381.869 241.636 383.481 248.843 376.552 252.036C369.622 255.23 360.518 249.712 356.656 246.132C356.656 246.132 359.685 252.673 355.358 256.41C351.031 260.148 339.558 256.506 336.48 254.307C333.402 252.108 304.671 238.353 273.541 199.81L212.547 180.918C212.547 180.918 204.009 158.347 254.399 121.705V121.705Z" fill="#F8AE9D"/>
<path d="M479.507 278.206H479.845C481.847 304.798 502.942 305.208 502.942 305.208C502.942 305.208 479.68 305.633 479.68 336.361C479.68 305.633 456.418 305.208 456.418 305.208C456.418 305.208 477.505 304.798 479.507 278.206Z" fill="#C26148"/>
<path d="M692.768 360.567C700.86 366.14 713.221 362.245 713.221 362.245C713.221 362.245 712.456 349.313 704.359 343.746C696.267 338.172 683.911 342.062 683.911 342.062C683.911 342.062 684.676 354.994 692.768 360.567V360.567Z" fill="white"/>
<path d="M245.675 314.671C254.058 323.203 269.732 321.404 269.732 321.404C269.732 321.404 271.806 305.773 263.416 297.247C255.034 288.716 239.367 290.51 239.367 290.51C239.367 290.51 237.293 306.14 245.675 314.671V314.671Z" fill="white"/>
<path d="M504.602 468.181C497.263 468.181 491.313 473.873 491.313 480.893C491.313 487.914 497.263 493.605 504.602 493.605C511.942 493.605 517.892 487.914 517.892 480.893C517.892 473.873 511.942 468.181 504.602 468.181Z" fill="#888F82"/>
<path d="M262.565 364.507C258.283 364.507 254.811 367.979 254.811 372.262C254.811 376.544 258.283 380.016 262.565 380.016C266.848 380.016 270.319 376.544 270.319 372.262C270.319 367.979 266.848 364.507 262.565 364.507Z" fill="#888F82"/>
<path d="M398.65 120.022C394.582 120.022 391.284 116.724 391.284 112.655C391.284 108.587 394.582 105.289 398.65 105.289C402.719 105.289 406.017 108.587 406.017 112.655C406.017 116.724 402.719 120.022 398.65 120.022Z" fill="#888F82"/>
<path d="M644.571 241.99C637.87 241.99 632.437 236.558 632.437 229.857C632.437 223.156 637.87 217.723 644.571 217.723C651.272 217.723 656.704 223.156 656.704 229.857C656.704 236.558 651.272 241.99 644.571 241.99Z" fill="#888F82"/>
<path d="M607.47 493.463C603.272 493.463 599.869 490.06 599.869 485.862C599.869 481.665 603.272 478.262 607.47 478.262C611.668 478.262 615.071 481.665 615.071 485.862C615.071 490.06 611.668 493.463 607.47 493.463Z" fill="#ADADAD"/>
<path d="M371.9 473.609C364.191 473.609 357.942 467.36 357.942 459.651C357.942 451.943 364.191 445.694 371.9 445.694C379.608 445.694 385.857 451.943 385.857 459.651C385.857 467.36 379.608 473.609 371.9 473.609Z" fill="#888F82"/>
<path d="M498.291 461.203C495.721 461.203 493.638 459.12 493.638 456.55C493.638 453.981 495.721 451.898 498.291 451.898C500.86 451.898 502.943 453.981 502.943 456.55C502.943 459.12 500.86 461.203 498.291 461.203Z" fill="#888F82"/>
<path d="M677.637 274.009C674.514 274.009 671.981 271.477 671.981 268.353C671.981 265.229 674.514 262.697 677.637 262.697C680.761 262.697 683.293 265.229 683.293 268.353C683.293 271.477 680.761 274.009 677.637 274.009Z" fill="#ADADAD"/>
<path d="M624.01 188.464C619.242 188.464 615.377 184.599 615.377 179.831C615.377 175.064 619.242 171.199 624.01 171.199C628.778 171.199 632.643 175.064 632.643 179.831C632.643 184.599 628.778 188.464 624.01 188.464Z" fill="#888F82"/>
<path d="M320.15 303.508C320.15 305.92 318.195 307.875 315.783 307.875C313.372 307.875 311.417 305.92 311.417 303.508C311.417 301.097 313.372 299.142 315.783 299.142C318.195 299.142 320.15 301.097 320.15 303.508Z" fill="#ADADAD"/>
<path d="M257.077 217.603C254.113 217.603 251.71 215.2 251.71 212.236C251.71 209.271 254.113 206.868 257.077 206.868C260.042 206.868 262.445 209.271 262.445 212.236C262.445 215.2 260.042 217.603 257.077 217.603Z" fill="#ADADAD"/>
<path d="M704.125 399.885C700.934 399.885 698.347 397.815 698.347 395.262C698.347 392.71 700.934 390.64 704.125 390.64C707.317 390.64 709.904 392.71 709.904 395.262C709.904 397.815 707.317 399.885 704.125 399.885Z" fill="#ADADAD"/>
<path d="M512.248 160.731C512.248 165.228 508.603 168.873 504.106 168.873C499.609 168.873 495.964 165.228 495.964 160.731C495.964 156.235 499.609 152.589 504.106 152.589C508.603 152.589 512.248 156.235 512.248 160.731Z" fill="#888F82"/>
<path d="M682.306 210.745H682.457C683.352 223.428 692.784 223.622 692.784 223.622C692.784 223.622 682.383 223.825 682.383 238.48C682.383 223.825 671.983 223.622 671.983 223.622C671.983 223.622 681.41 223.428 682.306 210.745ZM348.964 120.022H349.082C349.783 130.304 357.166 130.463 357.166 130.463C357.166 130.463 349.024 130.627 349.024 142.509C349.024 130.627 340.883 130.463 340.883 130.463C340.883 130.463 348.263 130.305 348.964 120.022Z" fill="#ADADAD"/>
<path d="M339.203 396.259C343.006 395.358 347.028 398.584 347.028 398.584C347.028 398.584 344.882 403.268 341.078 404.166C337.274 405.067 333.254 401.845 333.254 401.845C333.254 401.845 335.4 397.16 339.203 396.259V396.259Z" fill="white"/>
<path d="M357.009 312.478C353.638 310.157 348.489 311.78 348.489 311.78C348.489 311.78 348.808 317.166 352.181 319.486C355.551 321.807 360.699 320.187 360.699 320.187C360.699 320.187 360.38 314.8 357.009 312.478V312.478Z" fill="white"/>
<path d="M599.734 300.361C594.642 295.179 585.123 296.272 585.123 296.272C585.123 296.272 583.863 305.765 588.959 310.943C594.049 316.126 603.565 315.036 603.565 315.036C603.565 315.036 604.825 305.543 599.734 300.361Z" fill="white"/>
<path d="M366.995 291.691C372.428 291.691 376.831 287.487 376.831 282.302C376.831 277.116 372.428 272.912 366.995 272.912C361.563 272.912 357.159 277.116 357.159 282.302C357.159 287.487 361.563 291.691 366.995 291.691Z" fill="#888F82"/>
<path d="M677.165 185.443C682.597 185.443 687.001 181.039 687.001 175.607C687.001 170.175 682.597 165.771 677.165 165.771C671.733 165.771 667.329 170.175 667.329 175.607C667.329 181.039 671.733 185.443 677.165 185.443Z" fill="#888F82"/>
<path d="M311.054 435.614C315.992 435.614 319.996 439.817 319.996 445.003C319.996 450.189 315.992 454.393 311.054 454.393C306.115 454.393 302.112 450.189 302.112 445.003C302.112 439.817 306.115 435.614 311.054 435.614Z" fill="#888F82"/>
<path d="M702.069 296.04C706.267 296.04 709.67 299.443 709.67 303.641C709.67 307.838 706.267 311.241 702.069 311.241C697.871 311.241 694.469 307.838 694.469 303.641C694.469 299.443 697.871 296.04 702.069 296.04Z" fill="#888F82"/>
<path d="M430.56 197.8C433.071 197.8 435.106 199.835 435.106 202.345C435.106 204.856 433.071 206.891 430.56 206.891C428.05 206.891 426.015 204.856 426.015 202.345C426.015 199.835 428.05 197.8 430.56 197.8Z" fill="#888F82"/>
<path d="M581.918 166.501C584.558 166.501 586.699 168.642 586.699 171.282C586.699 173.923 584.558 176.063 581.918 176.063C579.277 176.063 577.137 173.923 577.137 171.282C577.137 168.642 579.277 166.501 581.918 166.501Z" fill="#888F82"/>
<path d="M384.944 339.163C386.245 339.163 387.3 340.217 387.3 341.518C387.3 342.819 386.245 343.874 384.944 343.874C383.643 343.874 382.588 342.819 382.588 341.518C382.588 340.217 383.643 339.163 384.944 339.163Z" fill="#ADADAD"/>
<path d="M435.2 468.181C437.186 468.181 438.796 469.791 438.796 471.776C438.796 473.762 437.186 475.372 435.2 475.372C433.215 475.372 431.605 473.762 431.605 471.776C431.605 469.791 433.215 468.181 435.2 468.181Z" fill="#888F82"/>
<path d="M565.751 274.431C565.751 271.805 567.879 269.676 570.505 269.676C573.131 269.676 575.26 271.805 575.26 274.431C575.26 277.057 573.131 279.186 570.505 279.186C567.879 279.186 565.751 277.057 565.751 274.431Z" fill="#ADADAD"/>
<path d="M645.11 305.345C647.826 305.345 650.028 307.547 650.028 310.264C650.028 312.98 647.826 315.182 645.11 315.182C642.393 315.182 640.191 312.98 640.191 310.264C640.191 307.547 642.393 305.345 645.11 305.345Z" fill="#ADADAD"/>
<path d="M274.445 248.769C279.137 248.769 282.94 251.772 282.94 255.476C282.94 259.18 279.137 262.182 274.445 262.182C269.753 262.182 265.949 259.18 265.949 255.476C265.949 251.772 269.753 248.769 274.445 248.769Z" fill="#ADADAD"/>
<path d="M404.957 433.572C404.258 430.961 405.807 428.277 408.419 427.577C411.03 426.877 413.714 428.427 414.414 431.038C415.114 433.65 413.564 436.334 410.953 437.034C408.341 437.733 405.657 436.184 404.957 433.572Z" fill="#888F82"/>
<path d="M374.937 372.099H374.874C374.501 366.816 370.573 366.734 370.573 366.734C370.573 366.734 374.905 366.65 374.905 360.546C374.905 366.65 379.237 366.734 379.237 366.734C379.237 366.734 375.31 366.816 374.937 372.099V372.099ZM516.708 399.735H516.633C516.196 393.415 511.588 393.317 511.588 393.317C511.588 393.317 516.67 393.216 516.67 385.913C516.67 393.216 521.751 393.317 521.751 393.317C521.751 393.317 517.145 393.415 516.708 399.735V399.735Z" fill="#ADADAD"/>
</svg>
