<svg width="600" height="600" viewBox="0 0 600 600" fill="none" xmlns="http://www.w3.org/2000/svg">
<rect width="600" height="600" fill="#CBD0D0"/>
<path d="M508.442 331.256C511.164 381.425 413.079 483.439 292.182 445.68C235.955 428.117 240.717 398.967 197.962 360.55C172.477 337.652 135.861 320.338 125.676 287.055C116.879 258.327 122.274 227.448 137.526 207.364C171.829 162.194 241.081 131.265 309.316 202.433C377.55 273.6 501.405 201.865 508.442 331.256V331.256Z" fill="url(#paint0_linear_182_1642)"/>
<path d="M470.621 207.382C461.658 223.378 442.029 225.575 410.582 222.536C386.931 220.246 365.363 218.473 341.711 205.578C325.156 196.558 312.051 184.355 302.486 172.502C292.122 159.662 277.655 145.008 284.747 130.45C294.494 110.451 350.854 93.6075 405.583 121.152C465.702 151.419 479.389 191.749 470.621 207.382Z" fill="url(#paint1_linear_182_1642)"/>
<path d="M227.672 447.141C202.284 411.624 176.283 373.874 142.242 355.28C107.13 336.093 100.655 347.919 98.2247 366.72C95.7938 385.52 106.627 430.065 154.544 455.41C202.474 480.762 251.427 480.383 227.672 447.141Z" fill="url(#paint2_linear_182_1642)"/>
<path d="M505.302 242.241C493.896 244.943 481.833 235.27 481.833 235.27C481.833 235.27 488.27 221.222 499.681 218.528C511.086 215.826 523.146 225.49 523.146 225.49C523.146 225.49 516.708 239.539 505.302 242.241V242.241Z" fill="#C26148"/>
<path d="M217.467 127.419C229.474 135.69 247.819 129.909 247.819 129.909C247.819 129.909 246.683 110.719 234.667 102.458C222.659 94.1869 204.323 99.9596 204.323 99.9596C204.323 99.9596 205.459 119.149 217.467 127.419V127.419Z" fill="#C26148"/>
<path d="M64.6689 281.813C77.6865 295.062 102.029 292.269 102.029 292.269C102.029 292.269 105.251 267.994 92.2206 254.753C79.203 241.503 54.8722 244.289 54.8722 244.289C54.8722 244.289 51.6513 268.564 64.6689 281.813V281.813Z" fill="#C26148"/>
<path d="M482.328 346.182C476.985 346.182 472.654 350.325 472.654 355.436C472.654 360.547 476.985 364.69 482.328 364.69C487.671 364.69 492.002 360.547 492.002 355.436C492.002 350.325 487.671 346.182 482.328 346.182Z" fill="#C26148"/>
<path d="M152.562 389.085C145.361 389.085 139.523 394.735 139.523 401.704C139.523 408.673 145.361 414.323 152.562 414.323C159.764 414.323 165.602 408.673 165.602 401.704C165.602 394.735 159.764 389.085 152.562 389.085Z" fill="#C26148"/>
<path d="M134.897 251.964C132.341 251.964 130.27 249.892 130.27 247.337C130.27 244.782 132.341 242.71 134.897 242.71C137.452 242.71 139.524 244.782 139.524 247.337C139.524 249.892 137.452 251.964 134.897 251.964Z" fill="#888F82"/>
<path d="M495.192 182.574C490.314 182.574 486.359 178.619 486.359 173.741C486.359 168.863 490.314 164.908 495.192 164.908C500.07 164.908 504.025 168.863 504.025 173.741C504.025 178.619 500.07 182.574 495.192 182.574Z" fill="#C26148"/>
<path d="M480.163 438.879C475.776 438.879 472.219 435.323 472.219 430.935C472.219 426.548 475.776 422.991 480.163 422.991C484.55 422.991 488.107 426.548 488.107 430.935C488.107 435.323 484.55 438.879 480.163 438.879Z" fill="#E1E4E5"/>
<path d="M98.0265 334.666C93.4115 334.666 89.6703 330.925 89.6703 326.31C89.6703 321.695 93.4115 317.954 98.0265 317.954C102.642 317.954 106.383 321.695 106.383 326.31C106.383 330.925 102.642 334.666 98.0265 334.666Z" fill="#E1E4E5"/>
<path d="M192.942 447.13C191.316 447.13 189.997 445.812 189.997 444.186C189.997 442.56 191.316 441.241 192.942 441.241C194.568 441.241 195.886 442.56 195.886 444.186C195.886 445.812 194.568 447.13 192.942 447.13Z" fill="#E1E4E5"/>
<path d="M417.973 151.014C415.65 151.014 413.767 149.131 413.767 146.808C413.767 144.486 415.65 142.603 417.973 142.603C420.296 142.603 422.179 144.486 422.179 146.808C422.179 149.131 420.296 151.014 417.973 151.014Z" fill="#E1E4E5"/>
<path d="M153.386 293.783C153.974 295.976 152.673 298.23 150.48 298.818C148.287 299.405 146.033 298.104 145.445 295.911C144.858 293.718 146.159 291.464 148.352 290.877C150.545 290.289 152.799 291.59 153.386 293.783Z" fill="#E1E4E5"/>
<path d="M154.245 207.378C151.225 207.378 148.777 204.93 148.777 201.91C148.777 198.89 151.225 196.442 154.245 196.442C157.265 196.442 159.713 198.89 159.713 201.91C159.713 204.93 157.265 207.378 154.245 207.378Z" fill="#E1E4E5"/>
<path d="M488.638 302.438C486.315 302.438 484.432 300.932 484.432 299.073C484.432 297.215 486.315 295.708 488.638 295.708C490.961 295.708 492.844 297.215 492.844 299.073C492.844 300.932 490.961 302.438 488.638 302.438Z" fill="#E1E4E5"/>
<path d="M319.986 114.84C321.209 119.403 318.501 124.093 313.938 125.316C309.374 126.539 304.684 123.831 303.461 119.267C302.239 114.704 304.947 110.014 309.51 108.791C314.073 107.568 318.764 110.276 319.986 114.84Z" fill="#E1E4E5"/>
<path d="M537.854 279.252H537.963C538.614 288.484 545.481 288.626 545.481 288.626C545.481 288.626 537.909 288.774 537.909 299.442C537.909 288.774 530.339 288.626 530.339 288.626C530.339 288.626 537.201 288.484 537.854 279.252V279.252ZM187.798 151.855H187.988C189.11 168.011 200.935 168.26 200.935 168.26C200.935 168.26 187.895 168.519 187.895 187.187C187.895 168.519 174.857 168.26 174.857 168.26C174.857 168.26 186.676 168.011 187.798 151.855V151.855Z" fill="#E1E4E5"/>
<path d="M252.338 399.711C252.338 399.711 234.823 390.41 233.417 388.048C232.005 385.695 225.275 373.995 219.107 369.391C212.948 364.794 206.655 367.24 203.657 371.215L209.006 379.711C209.006 379.711 198.96 371.977 193.641 373.863C188.323 375.749 187.679 381.979 187.679 381.979C187.679 381.979 192.043 384.295 194.148 386.311C196.253 388.327 216.27 421.702 265.168 430.506C314.066 439.309 318.601 432.93 319.159 432.492C319.718 432.052 321.788 422.616 321.788 422.616L252.338 399.711V399.711Z" fill="#F8AE9D"/>
<path opacity="0.1" d="M252.338 399.711C252.338 399.711 234.823 390.41 233.417 388.048C232.005 385.695 225.275 373.995 219.107 369.391C212.948 364.794 206.655 367.24 203.657 371.215L209.006 379.711C209.006 379.711 198.96 371.977 193.641 373.863C188.323 375.749 187.679 381.979 187.679 381.979C187.679 381.979 192.043 384.295 194.148 386.311C196.253 388.327 216.27 421.702 265.168 430.506C314.066 439.309 318.601 432.93 319.159 432.492C319.718 432.052 321.788 422.616 321.788 422.616L252.338 399.711V399.711Z" fill="black"/>
<path fill-rule="evenodd" clip-rule="evenodd" d="M378.464 400.395C379.779 400.898 380.936 401.341 381.964 401.67C386.689 403.182 397.896 412.338 397.896 412.338L397.79 412.503C403.875 417.133 407.126 419.379 413.28 423.501C418.792 427.191 440.836 436.005 454.504 441.314C460.19 443.522 462.391 450.435 458.997 455.504L430.26 498.419C427.146 503.071 420.713 504.029 416.394 500.469C402.672 489.16 375.883 467.078 372.317 464.122C370.444 462.568 367.503 461.405 364.607 460.563C362.126 460.22 355.233 459.675 337.125 459.973C325.587 460.163 318.588 462.49 312.585 464.486C305.354 466.89 299.57 468.813 289.042 465.939C289.042 465.939 249.661 447.628 240.372 443.657C231.815 439.992 228.949 437.182 222.12 430.485C221.545 429.92 220.941 429.329 220.304 428.707C217.228 425.706 214.227 423.339 211.282 421.017C206.884 417.547 202.612 414.178 198.406 408.948C194.455 404.046 191.729 402.387 190.119 401.408C188.863 400.645 188.289 400.295 188.344 399.141C188.47 396.507 197.118 391.702 201.436 393.473C205.753 395.246 212.251 400.8 212.251 400.8C212.251 400.8 236.476 418.376 240.795 420.319C242.96 421.297 249.535 423.253 256.097 425.204C262.615 427.143 269.119 429.076 271.271 430.045C275.586 431.995 311.362 432.606 311.362 432.606C310.213 432.114 309.273 431.656 308.631 431.258C306.094 429.692 300.308 429.26 293.82 428.776C288.872 428.407 283.517 428.008 278.885 427.053C272.003 425.637 267.171 423.833 261.807 421.83C258.826 420.717 255.68 419.542 251.927 418.339C241.419 414.97 237.105 408.649 240.068 402.126C243.03 395.603 248.131 393.934 253.539 394.251C258.948 394.568 273.505 395.926 288.234 400.341C299.731 403.795 306.507 401.495 313.455 399.136C315.406 398.474 317.37 397.808 319.455 397.262C328.97 394.775 343.886 394.006 356.841 395.124C366.976 395.998 373.739 398.586 378.464 400.395V400.395Z" fill="#F8AE9D"/>
<path fill-rule="evenodd" clip-rule="evenodd" d="M273.496 142.302C270.075 144.837 267.036 148.133 264.608 152.188C253.395 170.909 245.386 191.183 240.58 212.123C222.855 209.731 205.651 206.096 189.512 201.22C206.777 170.466 237.388 148.21 273.496 142.302V142.302ZM185.422 209.2C202.268 214.392 220.248 218.253 238.782 220.786C233.972 246.694 233.971 273.266 238.778 299.175C220.528 301.67 202.815 305.454 186.195 310.528C178.662 294.964 174.438 277.5 174.438 259.049C174.438 241.24 178.373 224.349 185.422 209.2V209.2ZM190.422 318.472C207.371 347.594 236.396 368.821 270.636 375.293C268.372 373.177 266.336 370.676 264.608 367.792C253.392 349.066 245.381 328.785 240.576 307.838C223.184 310.186 206.295 313.731 190.422 318.472V318.472ZM249.386 306.756C254.008 326.497 261.606 345.602 272.181 363.256V363.257C281.711 379.175 303.788 379.175 313.318 363.257L313.319 363.256C323.892 345.602 331.49 326.497 336.113 306.756C307.571 303.591 277.926 303.591 249.386 306.756ZM344.923 307.838C340.117 328.785 332.107 349.066 320.891 367.792C319.164 370.675 317.128 373.174 314.866 375.29C349.102 368.814 378.122 347.587 395.068 318.467C379.197 313.728 362.31 310.185 344.923 307.838V307.838ZM399.294 310.522C382.675 305.451 364.966 301.669 346.721 299.175C351.528 273.265 351.527 246.692 346.717 220.783C365.246 218.25 383.222 214.387 400.062 209.195C407.112 224.346 411.049 241.238 411.049 259.049C411.049 277.498 406.826 294.96 399.294 310.522ZM337.946 298.079C308.204 294.714 277.292 294.714 247.554 298.079C242.815 272.901 242.816 247.059 247.557 221.881C277.296 225.246 308.205 225.245 337.942 221.878C342.683 247.057 342.684 272.9 337.946 298.079ZM249.39 213.205C277.931 216.369 307.571 216.368 336.108 213.203C331.485 193.469 323.889 174.371 313.319 156.723C303.773 140.803 281.71 140.807 272.181 156.722V156.723C261.61 174.371 254.014 193.471 249.39 213.205V213.205ZM344.918 212.12C362.64 209.727 379.838 206.092 395.973 201.214C378.708 170.465 348.101 148.213 311.998 142.303C315.419 144.838 318.46 148.133 320.89 152.186L320.891 152.188C332.103 170.908 340.112 191.181 344.918 212.12V212.12Z" fill="#B6B9B3"/>
<defs>
<linearGradient id="paint0_linear_182_1642" x1="391.209" y1="631.98" x2="207.736" y2="-195.791" gradientUnits="userSpaceOnUse">
<stop stop-color="white"/>
<stop offset="1" stop-color="#EEEEEE"/>
</linearGradient>
<linearGradient id="paint1_linear_182_1642" x1="410.243" y1="311.05" x2="330.356" y2="-47.9278" gradientUnits="userSpaceOnUse">
<stop stop-color="white"/>
<stop offset="1" stop-color="#EEEEEE"/>
</linearGradient>
<linearGradient id="paint2_linear_182_1642" x1="199.323" y1="563.738" x2="116.026" y2="178.533" gradientUnits="userSpaceOnUse">
<stop stop-color="white"/>
<stop offset="1" stop-color="#EEEEEE"/>
</linearGradient>
</defs>
</svg>
