<svg width="600" height="600" viewBox="0 0 600 600" fill="none" xmlns="http://www.w3.org/2000/svg">
<rect width="600" height="600" fill="#CBD0D0"/>
<g clip-path="url(#clip0_2101_860)">
<path d="M486.33 248.057C483.099 213.112 424.964 213.742 424.964 213.742C424.964 213.742 376.565 265.492 365.199 264.948C353.833 264.404 397.941 212.619 397.941 212.619C376.75 206.787 317.225 223.646 317.225 223.646C317.225 223.646 308.847 292.386 297.963 289.061C287.08 285.735 308.487 228.57 308.487 228.57C286.542 231.199 262.84 252.149 262.84 252.149C231.609 287.544 278.672 325.823 278.672 325.823C278.672 325.823 275.255 349.582 255.935 374.154C255.935 374.154 251.771 378.588 246.94 386.516L252.625 387.506C253.336 386.093 254.107 384.711 254.937 383.364C254.942 383.353 254.944 383.347 254.954 383.338C254.969 383.318 254.976 383.301 254.991 383.281C255.531 382.472 256.313 381.316 257.275 379.917L257.278 379.912L257.28 379.907C259.607 376.804 261.223 374.499 262.276 372.817L262.283 372.8C269.347 363.028 279.265 350.424 284.774 348.379C284.774 348.379 284.297 347.384 284.008 345.559C284.254 346.458 284.503 347.397 284.774 348.379C290.877 370.929 338.943 382.873 367.026 382.027C395.109 381.181 384.622 371.477 372.179 356.525C359.736 341.573 328.576 339.522 320.387 333.083C312.198 326.643 326.251 324.076 344.091 328.61C361.923 333.146 367.822 352.795 396.537 360.657C425.252 368.519 457.06 317.461 457.06 317.461C435.808 320.213 401.587 302.792 401.406 295.601C401.226 288.405 454.643 298.415 463.344 297.78C472.06 297.145 489.561 283.002 486.33 248.057Z" fill="url(#paint0_linear_2101_860)"/>
<path d="M114.44 189.548C129.403 161.171 178.235 182.077 178.235 182.077C178.235 182.077 200.951 242.741 210.731 246.265C220.512 249.79 201.429 190.599 201.429 190.599C221.351 193.1 265.673 228.199 265.673 228.199C265.673 228.199 248.672 289.185 259.019 290.191C269.366 291.197 271.322 235.42 271.322 235.42C288.917 245.331 301.58 271.33 301.58 271.33C315.537 312.165 262.424 327.997 262.424 327.997C262.424 327.997 256.986 349.26 264.684 376.781C264.684 376.781 266.645 381.985 267.945 390.372L262.802 389.216C262.697 387.774 262.53 386.337 262.302 384.909C262.302 384.897 262.302 384.891 262.296 384.881C262.29 384.858 262.29 384.842 262.285 384.82C262.113 383.947 261.857 382.696 261.535 381.179V381.167C260.658 377.732 260.102 375.219 259.802 373.43V373.412C257.264 362.684 253.309 348.564 249.377 344.907C249.377 344.907 250.127 344.234 251.01 342.795C250.488 343.467 249.949 344.173 249.377 344.907C236.331 361.811 191.592 355.052 168.192 344.496C144.793 333.939 157.04 329.42 172.775 321.154C188.51 312.888 215.519 322.077 224.683 319.508C233.848 316.94 222.89 309.847 206.249 307.423C189.615 305.005 177.757 319.53 150.775 316.106C123.793 312.682 114.835 258.417 114.835 258.417C131.802 268.189 166.776 265.471 169.448 259.462C172.119 253.447 123.544 243.18 116.423 239.595C109.291 236.003 99.4771 217.926 114.44 189.548Z" fill="url(#paint1_linear_2101_860)"/>
<path d="M205.263 246.808L195.427 202.634H166.979" stroke="#C26148" stroke-width="20.4738" stroke-linecap="round" stroke-linejoin="round"/>
<path fill-rule="evenodd" clip-rule="evenodd" d="M231.476 368.367L205.263 246.808H393.577C403.054 246.808 410.105 255.499 408.127 264.723L385.782 368.367C384.309 375.193 378.254 380.065 371.232 380.065H246.011C239.004 380.065 232.949 375.193 231.476 368.367Z" fill="#C26148" stroke="#C26148" stroke-width="20.4738" stroke-linecap="round" stroke-linejoin="round"/>
<path d="M364.986 418.533C361.024 418.533 357.808 421.749 357.846 425.711C357.846 429.673 361.062 432.889 365.024 432.889C368.987 432.889 372.203 429.673 372.203 425.711C372.184 421.749 368.968 418.533 364.986 418.533ZM250.145 418.533C246.182 418.533 242.966 421.749 243.005 425.711C242.985 429.673 246.201 432.889 250.163 432.889C254.126 432.889 257.342 429.673 257.342 425.711C257.342 421.749 254.126 418.533 250.145 418.533Z" stroke="#C26148" stroke-width="26.5187" stroke-linecap="round" stroke-linejoin="round"/>
<path fill-rule="evenodd" clip-rule="evenodd" d="M454.844 349.879C440.614 349.879 429.076 338.342 429.076 324.112C429.076 309.881 440.614 298.344 454.844 298.344C469.075 298.344 480.612 309.881 480.612 324.112C480.612 338.342 469.075 349.879 454.844 349.879Z" fill="#C26148"/>
<path d="M462.943 320.431L452.362 330.738L446.009 324.555" stroke="white" stroke-width="4.33754" stroke-linecap="round" stroke-linejoin="round"/>
<path fill-rule="evenodd" clip-rule="evenodd" d="M472.145 265.95C457.712 265.95 446.009 254.083 446.009 239.446C446.009 224.808 457.712 212.941 472.145 212.941C486.579 212.941 498.281 224.808 498.281 239.446C498.281 254.083 486.579 265.95 472.145 265.95Z" fill="#C26148"/>
<path d="M481.348 235.027L470.307 246.807L463.678 239.74" stroke="white" stroke-width="4.33754" stroke-linecap="round" stroke-linejoin="round"/>
<path fill-rule="evenodd" clip-rule="evenodd" d="M133.067 290.103C118.75 290.103 107.141 278.494 107.141 264.176C107.141 249.858 118.75 238.25 133.067 238.25C147.385 238.25 158.993 249.858 158.993 264.176C158.993 278.494 147.385 290.103 133.067 290.103Z" fill="#C26148"/>
<path d="M141.709 260.248L130.909 271.247L124.425 264.649" stroke="white" stroke-width="4.33754" stroke-linecap="round" stroke-linejoin="round"/>
<path d="M356.925 282.146H256.798C252.732 282.146 249.436 285.443 249.436 289.509V292.453C249.436 296.519 252.732 299.816 256.798 299.816H356.925C360.991 299.816 364.288 296.519 364.288 292.453V289.509C364.288 285.443 360.991 282.146 356.925 282.146Z" fill="white"/>
<path d="M356.925 324.111H256.798C252.732 324.111 249.436 327.408 249.436 331.474V334.418C249.436 338.484 252.732 341.781 256.798 341.781H356.925C360.991 341.781 364.288 338.484 364.288 334.418V331.474C364.288 327.408 360.991 324.111 356.925 324.111Z" fill="white"/>
<path d="M329.266 199.368C342.291 183.251 336.091 156.628 336.091 156.628C336.091 156.628 308.777 156.153 295.763 172.282C282.738 188.399 288.927 215.009 288.927 215.009C288.927 215.009 316.242 215.484 329.266 199.368Z" fill="url(#paint2_linear_2101_860)"/>
<path d="M490.608 279.938H490.496C489.831 289.028 482.821 289.168 482.821 289.168C482.821 289.168 490.551 289.313 490.551 299.816C490.551 289.313 498.281 289.168 498.281 289.168C498.281 289.168 491.273 289.028 490.608 279.938ZM267.532 192.327H267.419C266.754 201.417 259.744 201.557 259.744 201.557C259.744 201.557 267.474 201.702 267.474 212.205C267.474 201.702 275.205 201.557 275.205 201.557C275.205 201.557 268.197 201.417 267.532 192.327ZM106.298 212.205H106.185C105.52 221.295 98.5098 221.435 98.5098 221.435C98.5098 221.435 106.24 221.58 106.24 232.083C106.24 221.58 113.971 221.435 113.971 221.435C113.971 221.435 106.963 221.295 106.298 212.205ZM424.868 368.022C420.442 369.324 414.542 371.944 411.364 376.719C408.188 381.495 412.385 382.642 417.791 381.479C423.198 380.316 428.45 376.964 430.421 372.522C432.391 368.081 428.502 366.953 424.868 368.022Z" fill="#E1E4E5"/>
<path fill-rule="evenodd" clip-rule="evenodd" d="M171.81 372.941H173.711C174.172 372.941 174.542 373.315 174.542 373.771V375.674C174.542 376.133 174.168 376.504 173.711 376.504H171.81C171.59 376.503 171.379 376.415 171.223 376.26C171.068 376.104 170.98 375.894 170.979 375.674V373.771C170.979 373.662 171 373.554 171.042 373.453C171.084 373.352 171.145 373.261 171.222 373.184C171.299 373.106 171.391 373.045 171.491 373.004C171.592 372.962 171.7 372.941 171.81 372.941ZM178.404 372.941H180.307C180.763 372.941 181.137 373.315 181.137 373.771V375.674C181.137 376.133 180.763 376.504 180.307 376.504H178.404C178.184 376.503 177.974 376.415 177.818 376.26C177.663 376.104 177.575 375.894 177.574 375.674V373.771C177.574 373.315 177.949 372.941 178.404 372.941ZM185.004 372.941H186.906C187.362 372.941 187.736 373.315 187.736 373.771V375.674C187.736 376.133 187.362 376.504 186.906 376.504H185.004C184.784 376.503 184.573 376.415 184.418 376.26C184.262 376.104 184.174 375.894 184.173 375.674V373.771C184.173 373.662 184.195 373.554 184.236 373.453C184.278 373.352 184.339 373.261 184.416 373.184C184.493 373.106 184.585 373.045 184.686 373.004C184.787 372.962 184.895 372.941 185.004 372.941ZM191.599 372.941H193.502C193.958 372.941 194.332 373.315 194.332 373.771V375.674C194.332 376.133 193.958 376.504 193.502 376.504H191.599C191.379 376.504 191.167 376.416 191.011 376.261C190.855 376.105 190.767 375.894 190.766 375.674V373.771C190.768 373.551 190.857 373.341 191.012 373.185C191.168 373.03 191.379 372.942 191.599 372.941ZM198.195 372.941H200.097C200.557 372.941 200.931 373.315 200.931 373.771V375.674C200.931 376.133 200.557 376.504 200.097 376.504H198.195C197.975 376.503 197.764 376.415 197.609 376.26C197.453 376.104 197.365 375.894 197.364 375.674V373.771C197.364 373.315 197.739 372.941 198.195 372.941ZM178.646 380.133H180.549C181.005 380.133 181.379 380.507 181.379 380.963V382.869C181.379 383.325 181.005 383.699 180.549 383.699H178.646C178.426 383.699 178.215 383.612 178.059 383.456C177.904 383.301 177.816 383.09 177.816 382.869V380.967C177.815 380.858 177.836 380.749 177.878 380.648C177.919 380.546 177.98 380.454 178.057 380.377C178.135 380.299 178.226 380.238 178.328 380.196C178.429 380.154 178.537 380.132 178.646 380.133ZM185.242 380.133H187.144C187.6 380.133 187.974 380.507 187.974 380.963V382.869C187.974 383.325 187.6 383.699 187.144 383.699H185.242C185.022 383.699 184.811 383.611 184.656 383.456C184.5 383.3 184.412 383.089 184.412 382.869V380.967C184.411 380.858 184.432 380.749 184.473 380.648C184.515 380.546 184.576 380.454 184.653 380.377C184.73 380.299 184.822 380.238 184.923 380.196C185.024 380.154 185.133 380.132 185.242 380.133ZM191.838 380.133H193.739C194.2 380.133 194.574 380.507 194.574 380.963V382.869C194.574 383.325 194.2 383.699 193.739 383.699H191.838C191.618 383.699 191.407 383.611 191.251 383.456C191.096 383.3 191.008 383.089 191.007 382.869V380.967C191.007 380.507 191.381 380.133 191.838 380.133ZM185.004 365.215H186.906C187.362 365.215 187.736 365.589 187.736 366.045V367.948C187.736 368.407 187.362 368.778 186.906 368.778H185.004C184.784 368.777 184.573 368.689 184.418 368.534C184.262 368.378 184.174 368.168 184.173 367.948V366.045C184.173 365.936 184.194 365.828 184.236 365.727C184.278 365.626 184.339 365.535 184.416 365.458C184.493 365.38 184.585 365.319 184.686 365.278C184.787 365.236 184.895 365.215 185.004 365.215ZM191.599 365.215H193.502C193.958 365.215 194.332 365.589 194.332 366.045V367.948C194.332 368.407 193.958 368.778 193.502 368.778H191.599C191.379 368.778 191.167 368.69 191.011 368.535C190.855 368.379 190.767 368.168 190.766 367.948V366.045C190.768 365.825 190.857 365.615 191.012 365.459C191.168 365.304 191.379 365.216 191.599 365.215Z" fill="#E1E4E5"/>
</g>
<defs>
<linearGradient id="paint0_linear_2101_860" x1="255.358" y1="533.224" x2="502.203" y2="-40.8449" gradientUnits="userSpaceOnUse">
<stop stop-color="white"/>
<stop offset="1" stop-color="#EEEEEE"/>
</linearGradient>
<linearGradient id="paint1_linear_2101_860" x1="209.47" y1="511.315" x2="202.198" y2="-59.9878" gradientUnits="userSpaceOnUse">
<stop stop-color="white"/>
<stop offset="1" stop-color="#EEEEEE"/>
</linearGradient>
<linearGradient id="paint2_linear_2101_860" x1="372.802" y1="136.035" x2="221.299" y2="259.145" gradientUnits="userSpaceOnUse">
<stop stop-color="white"/>
<stop offset="1" stop-color="#EEEEEE"/>
</linearGradient>
<clipPath id="clip0_2101_860">
<rect width="597" height="398" fill="white" transform="translate(1 101)"/>
</clipPath>
</defs>
</svg>
