<svg width="600" height="600" viewBox="0 0 600 600" fill="none" xmlns="http://www.w3.org/2000/svg">
<rect width="600" height="600" fill="#CBD0D0"/>
<g clip-path="url(#clip0_2101_992)">
<path d="M484.227 360.342H450.735C442.528 360.342 435.653 354.756 435.653 347.681C435.653 344.143 437.427 340.978 440.088 338.744C442.75 336.51 446.521 335.02 450.735 335.02H455.615C459.829 335.02 463.6 333.531 466.261 331.297C468.923 329.062 470.697 325.897 470.697 322.36C470.697 315.471 464.043 309.7 455.615 309.7H353.317C350.645 309.7 348.927 306.414 348.927 303.742C348.927 297.039 342.495 291.64 334.51 291.64H296.442C295.479 291.64 294.555 291.257 293.875 290.576C293.194 289.895 292.811 288.972 292.811 288.009C292.811 287.046 293.194 286.123 293.875 285.442C294.555 284.761 295.479 284.379 296.442 284.379H442.307C448.739 284.379 454.728 282.145 458.942 278.607C463.156 275.069 465.818 270.042 465.818 264.643C465.818 253.658 455.171 244.908 442.307 244.908H366.969C355.148 244.908 343.447 235.785 331.626 235.785H289.565C283.395 235.785 278.394 230.784 278.394 224.614C278.394 218.444 283.395 213.442 289.565 213.442H383.75C388.187 213.442 392.401 211.953 395.284 209.533C398.168 207.112 399.942 203.761 399.942 199.851C399.942 192.404 392.622 186.26 383.75 186.26H166.605C162.168 186.26 157.954 187.749 155.071 190.169C152.187 192.59 150.413 195.942 150.413 199.851C150.413 207.299 157.733 213.442 166.605 213.442H172.15C179.469 213.442 185.68 218.469 185.68 224.8C185.68 227.965 184.127 230.758 181.687 232.806C179.248 234.854 175.92 236.157 172.15 236.157H145.311C140.654 236.157 136.217 237.833 133.112 240.439C130.007 243.046 128.011 246.584 128.011 250.68C128.011 258.685 135.774 265.015 145.09 265.015H172.371C181.244 265.015 188.563 271.16 188.563 278.607C188.563 282.331 186.789 285.682 183.905 288.103C181.022 290.523 177.029 292.012 172.593 292.012H148.195C144.202 292.012 140.654 293.315 137.992 295.55C135.33 297.784 133.778 300.763 133.778 304.114C133.778 310.816 140.21 316.216 148.195 316.216H167.936C179.248 316.216 188.341 323.85 188.341 333.345C188.341 338 186.123 342.468 182.352 345.447C178.582 348.612 173.48 350.474 167.936 350.474H140.432C134.886 350.474 129.785 352.335 126.237 355.501C122.466 358.48 120.248 362.762 120.248 367.416C120.248 376.726 129.341 384.359 140.432 384.359H225.358C234.738 384.359 243.951 389.573 253.33 389.573H268.797C274.71 389.573 279.502 394.365 279.502 400.278C279.502 406.19 274.71 410.984 268.797 410.984H231.149C226.27 410.984 222.056 412.659 218.95 415.266C215.845 417.873 213.849 421.596 213.849 425.506C213.849 433.512 221.612 440.028 231.149 440.028H461.825C466.705 440.028 470.919 438.353 474.025 435.746C477.129 433.139 479.126 429.416 479.126 425.506C479.126 417.5 471.363 410.984 461.825 410.984H454.95C447.852 410.984 442.307 406.143 442.307 400.371C442.307 397.392 443.638 394.785 446.077 392.924C448.296 391.062 451.623 389.758 455.171 389.758H484.227C489.107 389.758 493.322 388.083 496.427 385.477C499.532 382.87 501.528 379.146 501.528 375.236C501.528 366.858 493.765 360.342 484.227 360.342Z" fill="url(#paint0_linear_2101_992)"/>
<path d="M510.214 419.47C502.086 423.502 491.299 418.318 491.299 418.318C491.299 418.318 493.696 406.6 501.828 402.573C509.956 398.542 520.739 403.72 520.739 403.72C520.739 403.72 518.341 415.438 510.214 419.47Z" fill="url(#paint1_linear_2101_992)"/>
<path d="M69.2689 344.589C81.1367 351.702 98.1637 345.127 98.1637 345.127C98.1637 345.127 95.9376 327.022 84.0618 319.916C72.1946 312.804 55.1743 319.371 55.1743 319.371C55.1743 319.371 57.401 337.476 69.2689 344.589Z" fill="url(#paint2_linear_2101_992)"/>
<path d="M419.307 211.906C416.258 211.906 413.787 214.377 413.787 217.426C413.787 220.474 416.258 222.945 419.307 222.945C422.355 222.945 424.826 220.474 424.826 217.426C424.826 214.377 422.355 211.906 419.307 211.906Z" fill="#C26148"/>
<path d="M408.644 427.883C402.911 427.883 398.264 432.53 398.264 438.264C398.264 443.997 402.911 448.645 408.644 448.645C414.378 448.645 419.025 443.997 419.025 438.264C419.025 432.53 414.378 427.883 408.644 427.883Z" fill="#C26148"/>
<path d="M150.708 428.165C146.157 428.165 142.468 424.476 142.468 419.925C142.468 415.374 146.157 411.685 150.708 411.685C155.259 411.685 158.948 415.374 158.948 419.925C158.948 424.476 155.259 428.165 150.708 428.165Z" fill="#C26148"/>
<path d="M545.57 286.569C542.523 286.569 540.053 284.099 540.053 281.052C540.053 278.005 542.523 275.535 545.57 275.535C548.617 275.535 551.087 278.005 551.087 281.052C551.087 284.099 548.617 286.569 545.57 286.569Z" fill="#C26148"/>
<path d="M87.2459 422.052C81.5873 422.052 77.0002 417.465 77.0002 411.806C77.0002 406.148 81.5873 401.561 87.2459 401.561C92.9045 401.561 97.4917 406.148 97.4917 411.806C97.4917 417.465 92.9045 422.052 87.2459 422.052Z" fill="#E1E4E5"/>
<path d="M487.728 353.039C483.422 353.039 479.93 349.548 479.93 345.241C479.93 340.935 483.422 337.443 487.728 337.443C492.035 337.443 495.526 340.935 495.526 345.241C495.526 349.548 492.035 353.039 487.728 353.039Z" fill="#E1E4E5"/>
<path d="M449.236 171.442C443.823 171.442 439.434 167.053 439.434 161.64C439.434 156.226 443.823 151.838 449.236 151.838C454.65 151.838 459.038 156.226 459.038 161.64C459.038 167.053 454.65 171.442 449.236 171.442Z" fill="#E1E4E5"/>
<path d="M129.825 205.928C130.938 210.081 128.474 214.35 124.32 215.462C120.167 216.575 115.898 214.111 114.785 209.957C113.673 205.804 116.137 201.535 120.29 200.423C124.444 199.31 128.713 201.774 129.825 205.928Z" fill="#E1E4E5"/>
<path d="M203.444 171.202C197.724 171.202 193.087 166.566 193.087 160.846C193.087 155.126 197.724 150.489 203.444 150.489C209.163 150.489 213.8 155.126 213.8 160.846C213.8 166.566 209.163 171.202 203.444 171.202Z" fill="#E1E4E5"/>
<path d="M410.956 366.387C406.556 366.387 402.989 363.534 402.989 360.014C402.989 356.494 406.556 353.641 410.956 353.641C415.356 353.641 418.923 356.494 418.923 360.014C418.923 363.534 415.356 366.387 410.956 366.387Z" fill="#E1E4E5"/>
<path d="M133.345 160.612H133.459C134.131 170.134 141.212 170.281 141.212 170.281C141.212 170.281 133.403 170.433 133.403 181.435C133.403 170.433 125.595 170.28 125.595 170.28C125.595 170.28 132.673 170.134 133.345 160.612ZM195.246 394.944H195.355C196 404.438 202.799 404.584 202.799 404.584C202.799 404.584 195.302 404.736 195.302 415.706C195.302 404.736 187.805 404.584 187.805 404.584C187.805 404.584 194.601 404.438 195.246 394.944Z" fill="#E1E4E5"/>
<path d="M297.81 186.844L225.167 232.156M300.63 187.157L374.211 232.156" stroke="#C26148" stroke-width="6.69778" stroke-miterlimit="10" stroke-linecap="round" stroke-linejoin="round"/>
<path d="M190.4 254.596C190.4 234.331 201.22 232.688 214.664 232.688H384.727C398.171 232.688 408.991 234.331 408.991 254.596C408.991 278.147 398.171 276.504 384.727 276.504H214.664C201.22 276.504 190.4 278.147 190.4 254.596Z" fill="#C26148" stroke="#C26148" stroke-width="6.69778"/>
<path d="M206.674 278.097L222.104 372.645C225.605 393.874 234.032 409.413 265.329 409.413H331.316C365.348 409.413 370.382 394.531 374.322 373.958L392.706 278.097" fill="#C26148"/>
<path d="M206.674 278.097L222.104 372.645C225.605 393.874 234.032 409.413 265.329 409.413H331.316C365.348 409.413 370.382 394.531 374.322 373.958L392.706 278.097" stroke="#C26148" stroke-width="6.69778" stroke-linecap="round"/>
<path d="M273.646 334.262L290.061 350.676L325.626 317.847" stroke="white" stroke-width="14.6133" stroke-linecap="round" stroke-linejoin="round"/>
<path d="M462.617 283.794L450.866 294.658L427.364 299.536L426.034 316.829L420.935 323.037L414.505 338.114C418.496 340.848 426.655 346.45 427.364 346.982C428.074 347.514 425 352.229 423.374 354.521V364.276C426.7 366.271 433.617 370.306 434.681 370.484C436.011 370.706 443.328 369.597 444.215 368.71C445.101 367.823 455.3 378.244 457.296 379.574C459.291 380.904 465.942 382.9 467.051 382.678C467.938 382.5 472.151 378.022 474.146 375.805L484.345 371.814L501.416 368.71L503.19 350.751L511.172 337.005L512.058 329.023L499.643 313.06L496.982 296.21L474.146 292.441L462.617 283.794Z" fill="#C26148"/>
<path fill-rule="evenodd" clip-rule="evenodd" d="M472.619 297.148L468.305 291.46C466.117 288.574 461.778 288.574 459.59 291.46L455.276 297.148C454.045 298.773 452.403 300.04 450.52 300.82C448.637 301.6 446.58 301.865 444.56 301.587L437.488 300.615C433.9 300.122 430.832 303.189 431.326 306.777L432.298 313.85C432.576 315.869 432.311 317.926 431.531 319.809C430.751 321.692 429.483 323.334 427.859 324.565L422.171 328.879C419.285 331.067 419.285 335.406 422.171 337.594L427.859 341.908C429.483 343.139 430.751 344.781 431.531 346.664C432.311 348.547 432.576 350.604 432.298 352.624L431.326 359.696C430.832 363.284 433.9 366.352 437.488 365.859L444.56 364.887C446.58 364.609 448.637 364.873 450.52 365.653C452.403 366.433 454.045 367.701 455.276 369.325L459.59 375.014C461.778 377.9 466.117 377.9 468.305 375.014L472.619 369.325C473.85 367.701 475.492 366.433 477.375 365.653C479.258 364.873 481.315 364.609 483.335 364.887L490.407 365.859C493.995 366.352 497.063 363.284 496.569 359.696L495.597 352.624C495.319 350.604 495.584 348.547 496.364 346.664C497.144 344.781 498.412 343.139 500.036 341.908L505.725 337.594C508.611 335.406 508.611 331.067 505.725 328.879L500.036 324.565C498.412 323.334 497.144 321.692 496.364 319.809C495.584 317.926 495.319 315.869 495.597 313.85L496.569 306.777C497.063 303.189 493.995 300.122 490.407 300.615L483.335 301.587C481.315 301.865 479.258 301.6 477.375 300.82C475.492 300.04 473.85 298.773 472.619 297.148ZM477.021 284.851C470.456 276.193 457.439 276.193 450.874 284.851L446.561 290.54C446.502 290.617 446.424 290.678 446.334 290.715C446.244 290.752 446.147 290.764 446.05 290.751L438.978 289.779C428.214 288.299 419.01 297.503 420.489 308.267L421.462 315.339C421.475 315.436 421.463 315.534 421.425 315.623C421.388 315.713 421.328 315.791 421.25 315.85L415.562 320.163C406.904 326.729 406.904 339.745 415.562 346.31L421.25 350.623C421.328 350.682 421.388 350.76 421.425 350.85C421.463 350.94 421.475 351.037 421.462 351.134L420.489 358.206C419.01 368.971 428.214 378.175 438.978 376.695L446.05 375.722C446.147 375.709 446.245 375.722 446.334 375.759C446.424 375.796 446.502 375.856 446.561 375.934L450.874 381.622C457.439 390.28 470.456 390.28 477.021 381.622L481.334 375.934C481.393 375.856 481.471 375.796 481.561 375.759C481.65 375.722 481.748 375.709 481.845 375.722L488.917 376.695C499.681 378.175 508.885 368.971 507.406 358.206L506.433 351.134C506.42 351.037 506.433 350.94 506.47 350.85C506.507 350.76 506.567 350.682 506.645 350.623L512.333 346.31C520.991 339.745 520.991 326.729 512.333 320.163L506.645 315.85C506.567 315.791 506.507 315.713 506.47 315.623C506.432 315.534 506.42 315.436 506.433 315.339L507.406 308.267C508.885 297.503 499.681 288.299 488.917 289.779L481.845 290.751C481.748 290.764 481.651 290.752 481.561 290.715C481.471 290.678 481.393 290.617 481.334 290.54L477.021 284.851Z" fill="#C26148"/>
<path d="M482.753 324.255L454.965 352.043C452.253 354.755 447.854 354.755 445.141 352.043C442.428 349.33 442.428 344.931 445.141 342.218L472.929 314.43C475.642 311.717 480.041 311.717 482.753 314.43C485.466 317.143 485.466 321.542 482.753 324.255ZM457 319.342C457 323.179 453.89 326.289 450.053 326.289C446.216 326.289 443.106 323.179 443.106 319.342C443.106 315.506 446.216 312.396 450.053 312.396C453.89 312.396 457 315.506 457 319.342ZM470.894 347.13C470.894 350.967 474.005 354.077 477.841 354.077C481.678 354.077 484.788 350.967 484.788 347.13C484.788 343.294 481.678 340.184 477.841 340.184C474.005 340.184 470.894 343.294 470.894 347.13Z" fill="white"/>
<path d="M134.169 283.794L122.418 294.658L98.9164 299.536L97.5859 316.829L92.4865 323.037L86.0566 338.114C90.0479 340.848 98.2064 346.45 98.9164 346.982C99.6257 347.514 96.5514 352.229 94.9251 354.521V364.276C98.2509 366.271 105.168 370.306 106.233 370.484C107.563 370.706 114.88 369.597 115.766 368.71C116.653 367.823 126.852 378.244 128.848 379.574C130.843 380.904 137.494 382.9 138.603 382.678C139.49 382.5 143.702 378.022 145.697 375.805L155.896 371.814L172.968 368.71L174.742 350.751L182.724 337.005L183.61 329.023L171.195 313.06L168.534 296.21L145.697 292.441L134.169 283.794Z" fill="#C26148"/>
<path fill-rule="evenodd" clip-rule="evenodd" d="M144.171 297.148L139.858 291.46C137.669 288.574 133.33 288.574 131.142 291.46L126.829 297.148C125.597 298.772 123.955 300.04 122.072 300.82C120.189 301.6 118.132 301.865 116.113 301.587L109.04 300.615C105.452 300.122 102.384 303.189 102.877 306.777L103.85 313.85C104.128 315.869 103.863 317.926 103.083 319.809C102.303 321.692 101.036 323.334 99.4115 324.565L93.7227 328.879C90.8365 331.067 90.8365 335.406 93.7227 337.594L99.4115 341.908C101.036 343.139 102.303 344.781 103.083 346.664C103.863 348.547 104.128 350.604 103.85 352.624L102.877 359.696C102.384 363.284 105.452 366.352 109.04 365.859L116.113 364.887C118.132 364.609 120.189 364.874 122.072 365.654C123.955 366.433 125.597 367.701 126.829 369.325L131.142 375.014C133.33 377.9 137.669 377.9 139.858 375.014L144.171 369.325C145.402 367.701 147.044 366.434 148.927 365.654C150.81 364.874 152.867 364.609 154.886 364.887L161.959 365.859C165.547 366.352 168.615 363.284 168.122 359.696L167.149 352.624C166.872 350.604 167.136 348.547 167.917 346.664C168.697 344.781 169.964 343.139 171.588 341.908L177.276 337.594C180.162 335.406 180.162 331.067 177.276 328.879L171.588 324.565C169.964 323.334 168.697 321.692 167.917 319.809C167.136 317.926 166.872 315.869 167.149 313.85L168.122 306.777C168.615 303.189 165.547 300.122 161.959 300.615L154.886 301.587C152.867 301.865 150.81 301.6 148.927 300.82C147.044 300.04 145.402 298.772 144.171 297.148ZM148.573 284.851C142.008 276.193 128.991 276.193 122.426 284.851L118.113 290.54C118.054 290.617 117.976 290.678 117.886 290.715C117.797 290.752 117.699 290.764 117.603 290.751L110.53 289.779C99.7653 288.299 90.5613 297.503 92.0415 308.267L93.0139 315.339C93.0272 315.436 93.0147 315.534 92.9775 315.623C92.9404 315.713 92.88 315.791 92.8026 315.85L87.1144 320.163C78.456 326.729 78.456 339.745 87.1144 346.31L92.8026 350.623C92.88 350.682 92.9403 350.76 92.9774 350.85C93.0146 350.94 93.0272 351.037 93.0139 351.134L92.0415 358.206C90.5613 368.971 99.7653 378.175 110.53 376.695L117.603 375.722C117.699 375.709 117.797 375.722 117.886 375.759C117.976 375.796 118.054 375.856 118.113 375.934L122.426 381.622C128.991 390.28 142.008 390.28 148.573 381.622L152.887 375.934C152.945 375.856 153.023 375.796 153.113 375.759C153.203 375.722 153.301 375.709 153.397 375.722L160.469 376.695C171.234 378.175 180.438 368.971 178.957 358.206L177.985 351.134C177.972 351.038 177.985 350.94 178.022 350.85C178.059 350.76 178.119 350.682 178.196 350.623L183.885 346.31C192.544 339.745 192.544 326.729 183.885 320.163L178.196 315.85C178.119 315.791 178.059 315.713 178.022 315.623C177.985 315.534 177.972 315.436 177.985 315.339L178.957 308.267C180.438 297.503 171.234 288.299 160.469 289.779L153.397 290.751C153.301 290.764 153.203 290.752 153.113 290.715C153.023 290.678 152.945 290.617 152.887 290.54L148.573 284.851Z" fill="#C26148"/>
<path d="M154.305 324.255L126.517 352.043C123.804 354.755 119.405 354.755 116.693 352.043C113.979 349.33 113.979 344.931 116.693 342.218L144.48 314.43C147.193 311.717 151.592 311.717 154.305 314.43C157.018 317.143 157.018 321.542 154.305 324.255ZM128.552 319.342C128.552 323.179 125.441 326.289 121.605 326.289C117.768 326.289 114.658 323.179 114.658 319.342C114.658 315.506 117.768 312.396 121.605 312.396C125.441 312.396 128.552 315.506 128.552 319.342ZM142.446 347.13C142.446 350.967 145.556 354.077 149.392 354.077C153.23 354.077 156.34 350.967 156.34 347.13C156.34 343.294 153.23 340.184 149.392 340.184C145.556 340.184 142.446 343.294 142.446 347.13Z" fill="white"/>
<path d="M299.377 200.006C306.301 200.006 311.914 194.394 311.914 187.47C311.914 180.546 306.301 174.934 299.377 174.934C292.454 174.934 286.841 180.546 286.841 187.47C286.841 194.394 292.454 200.006 299.377 200.006Z" fill="white" stroke="#C26148" stroke-width="6.69778"/>
</g>
<defs>
<linearGradient id="paint0_linear_2101_992" x1="319.018" y1="582.305" x2="313.809" y2="-89.8476" gradientUnits="userSpaceOnUse">
<stop stop-color="white"/>
<stop offset="1" stop-color="#EEEEEE"/>
</linearGradient>
<linearGradient id="paint1_linear_2101_992" x1="479.003" y1="432.046" x2="546.039" y2="379.02" gradientUnits="userSpaceOnUse">
<stop stop-color="white"/>
<stop offset="1" stop-color="#EEEEEE"/>
</linearGradient>
<linearGradient id="paint2_linear_2101_992" x1="115.195" y1="367.486" x2="19.7005" y2="278.759" gradientUnits="userSpaceOnUse">
<stop stop-color="white"/>
<stop offset="1" stop-color="#EEEEEE"/>
</linearGradient>
<clipPath id="clip0_2101_992">
<rect width="548" height="365.333" fill="white" transform="translate(26 117)"/>
</clipPath>
</defs>
</svg>
