<svg width="600" height="600" viewBox="0 0 600 600" fill="none" xmlns="http://www.w3.org/2000/svg">
<rect width="600" height="600" fill="#CBD0D0"/>
<path fill-rule="evenodd" clip-rule="evenodd" d="M482.577 129C521.034 129 552.494 160.22 552.494 198.383C552.494 236.547 521.034 267.766 482.577 267.766C474.863 267.766 468.544 274.037 468.544 281.693C468.544 289.349 474.863 295.619 482.577 295.619H519.162C537.922 295.619 553.274 310.854 553.274 329.471C553.274 348.088 537.922 363.322 519.162 363.322C502.937 363.322 489.66 376.498 489.66 392.6C489.66 421.977 465.44 446.013 435.836 446.013H119.873C81.4159 446.013 49.9562 414.793 49.9562 376.63C49.9562 338.466 81.4159 307.246 119.873 307.246H126.635C134.351 307.246 140.669 300.984 140.669 293.32C140.669 285.664 134.358 279.394 126.635 279.394H81.112C62.3507 279.394 47 264.159 47 245.542C47 226.947 62.3126 211.729 81.0409 211.691H117.673C133.899 211.691 147.175 198.515 147.175 182.413C147.175 153.036 171.395 129 200.999 129H482.577V129Z" fill="url(#paint0_linear_182_1682)"/>
<path d="M346.516 280.948L333.858 277.097L278.828 275.478L266.417 278.865L268.037 309.106L296.114 327.021L323.347 326.474L340.468 310.874L344.269 295.407L346.516 280.948Z" fill="#F8AE9D"/>
<path d="M187.64 329.581C191.623 321.368 195.44 314.775 198.845 309.569C205.528 299.312 215.751 291.871 227.566 288.665L272.448 276.502C272.448 276.502 274.779 321.352 305.648 321.352C336.518 321.352 342.533 279.294 342.533 279.294L394.472 300.017C396.256 300.711 408.304 304.876 422.317 334.935C435.67 363.557 441.504 378.216 441.504 378.216L387.994 393.666L384.656 441.788L385.796 469.271L223.384 468.907L224.293 437.492L223.616 389.32L221.583 392.609L167.529 370.928C167.529 370.928 174.486 356.65 187.64 329.581V329.581Z" fill="#B6B9B3"/>
<path d="M310.894 296.948C297.721 296.705 282.757 271.012 282.757 271.012L281.898 205.011C281.209 186.002 293.034 169.805 314.348 169.716L316.326 169.805C336.163 170.752 351.872 185.12 352.403 202.825C352.905 219.303 353.205 237.506 352.56 246.301C351.213 264.505 330.444 261.432 330.444 261.432C330.401 261.432 330.501 270.602 330.444 275.958C330.287 287.987 316.183 297.357 310.894 296.948Z" fill="#F8AE9D"/>
<path d="M288.479 208.631C288.116 208.458 273.928 203.721 273.612 217.735C273.294 231.749 288.147 229.165 288.177 228.762C288.207 228.36 288.479 208.631 288.479 208.631V208.631ZM436.894 379.554L458.658 423.231C461.089 428.111 462.228 433.534 461.963 438.979C461.137 455.934 447.14 469.271 430.169 469.271L367.244 468.282L365.025 437.178L412.519 425.727L394.522 391.7L436.894 379.554V379.554ZM170.29 372.035C170.29 372.035 156.789 412.143 142.064 448.598C141.767 449.325 141.437 450.681 141.172 451.423C137.85 460.463 147.848 469.271 157.946 469.271L243.035 469.122V441.459L190.104 430.221L209.273 387.652L170.29 372.035Z" fill="#F8AE9D"/>
<path d="M340.831 440.186C340.815 440.285 338.881 439.673 335.659 439.475C332.453 439.26 327.908 439.624 323.38 441.557C318.852 443.491 315.431 446.515 313.383 448.977C311.3 451.439 310.408 453.274 310.325 453.208C310.292 453.191 310.49 452.728 310.936 451.935C311.383 451.142 312.094 450.019 313.101 448.746C315.118 446.184 318.555 443.045 323.182 441.078C327.809 439.112 332.453 438.781 335.691 439.112C337.311 439.26 338.617 439.524 339.493 439.756C340.368 439.97 340.848 440.153 340.831 440.186V440.186ZM337.922 433.493C337.889 433.625 335.923 432.65 332.535 432.55C329.164 432.402 324.421 433.426 319.993 436.104C315.564 438.798 312.242 442.202 309.896 444.647C308.772 445.837 307.846 446.828 307.119 447.589C306.458 448.283 306.095 448.663 306.062 448.63C306.029 448.613 306.359 448.183 306.971 447.457C307.831 446.42 308.713 445.401 309.614 444.4C311.911 441.888 315.217 438.401 319.728 435.657C324.24 432.931 329.115 431.939 332.552 432.188C334.271 432.287 335.642 432.6 336.551 432.914C337.013 433.046 337.344 433.212 337.576 433.311C337.807 433.41 337.922 433.476 337.922 433.493Z" fill="#EB996E"/>
<path d="M225.136 436.385H237.349C237.349 436.385 264.913 426.42 270.581 427.378C275.688 428.238 294.378 440.649 298.046 443.11C298.46 443.392 298.757 443.772 298.939 444.235C299.298 445.207 299.267 446.28 298.851 447.23C298.434 448.179 297.666 448.93 296.708 449.325L296.328 449.489L296.494 450.051C296.708 450.746 296.808 451.522 296.774 452.283C296.642 454.91 293.106 455.703 291.767 453.439L292.478 454.695C292.758 455.207 292.908 455.786 292.874 456.364L292.808 457.505C292.772 458.122 292.552 458.714 292.174 459.203C291.797 459.693 291.28 460.057 290.693 460.248C290.134 460.433 289.534 460.453 288.964 460.303C288.395 460.153 287.882 459.841 287.487 459.405C285.124 456.794 280.001 451.572 276.531 450.994C273.457 450.481 268.318 450.415 265.211 450.431C264.441 450.433 263.69 450.667 263.055 451.104C262.421 451.54 261.934 452.159 261.658 452.877C263.707 453.026 278.034 460.495 283.108 463.173C284.678 463.999 285.851 465.486 286.05 467.254C286.231 468.841 285.438 470.51 282.298 469.766C275.556 468.196 263.443 462.627 263.443 462.627C263.443 462.627 257.196 460.842 253.147 463.702C247.446 467.717 244.835 469.187 239.944 467.569C235.052 465.949 231.449 463.619 231.449 463.619L221.815 462.66C221.782 462.66 212.677 439.888 225.136 436.385V436.385Z" fill="#F8AE9D"/>
<path d="M261.542 441.045C261.559 441.144 263.492 440.533 266.714 440.334C269.921 440.12 274.465 440.484 278.993 442.417C283.521 444.351 286.942 447.375 288.991 449.837C291.074 452.299 291.966 454.133 292.048 454.067C292.081 454.051 291.883 453.588 291.436 452.795C290.799 451.677 290.075 450.611 289.272 449.606C287.256 447.044 283.819 443.905 279.191 441.938C274.564 439.972 269.921 439.641 266.681 439.972C265.399 440.083 264.128 440.298 262.881 440.616C262.005 440.848 261.525 441.012 261.542 441.045V441.045ZM264.451 434.353C264.484 434.485 266.45 433.51 269.837 433.41C273.209 433.262 277.952 434.286 282.38 436.964C286.809 439.657 290.131 443.062 292.477 445.507C293.601 446.697 294.527 447.688 295.254 448.449C295.914 449.143 296.278 449.522 296.311 449.489C296.344 449.473 296.014 449.043 295.402 448.317C294.542 447.28 293.661 446.26 292.758 445.26C290.462 442.748 287.156 439.261 282.645 436.518C278.133 433.79 273.258 432.799 269.821 433.048C268.102 433.146 266.731 433.46 265.822 433.774C265.359 433.907 265.029 434.072 264.798 434.171C264.566 434.27 264.451 434.337 264.451 434.353V434.353Z" fill="#EB996E"/>
<path d="M241.662 470.048H369.883C371.636 470.05 373.323 469.373 374.589 468.159C375.855 466.946 376.602 465.289 376.674 463.537L380.525 375.291C380.69 371.424 377.6 368.185 373.733 368.185H238.059C234.192 368.185 231.102 371.407 231.251 375.274L234.854 463.537C235.002 467.172 238.01 470.048 241.662 470.048Z" fill="#C26148"/>
<path d="M292.94 420.749C292.938 422.471 293.276 424.177 293.935 425.768C294.593 427.36 295.559 428.806 296.777 430.024C297.994 431.242 299.44 432.208 301.032 432.866C302.623 433.525 304.329 433.863 306.051 433.862C307.774 433.863 309.479 433.525 311.071 432.866C312.663 432.208 314.109 431.242 315.327 430.024C316.545 428.806 317.51 427.36 318.169 425.769C318.827 424.177 319.165 422.471 319.164 420.749C319.165 419.027 318.827 417.321 318.169 415.729C317.51 414.138 316.544 412.692 315.326 411.474C314.108 410.256 312.662 409.291 311.071 408.632C309.479 407.974 307.774 407.636 306.051 407.637C298.801 407.637 292.94 413.53 292.94 420.749Z" fill="white"/>
<path d="M293.437 234.164H281.869V283.74H293.437V234.164Z" fill="#F8AE9D"/>
<path d="M288.896 189.867C290.98 192.557 294.657 193.149 297.685 193.682C301.755 194.396 303.769 195.885 305.883 199.882C307.22 202.434 308.559 205.23 310.953 206.613C312.9 207.742 312.829 204.864 313.138 202.635C313.167 202.437 313.206 202.242 313.257 202.049C313.728 200.269 315.623 200.572 316.178 202.328C316.685 203.908 317.77 205.246 319.151 205.99C319.376 206.111 319.616 206.218 319.855 206.172C320.178 206.127 320.432 205.823 320.643 205.55C321.086 204.977 321.526 204.248 321.98 203.479C323.473 200.947 326.3 201.852 327.968 204.273C329.01 205.778 330.249 207.327 331.953 207.677C332.503 207.798 333.193 207.707 333.446 207.176C333.771 206.521 333.264 205.868 333.349 205.199C333.419 204.577 333.687 204.303 333.982 203.771C335.143 201.708 337.799 201.633 339.432 203.348C340.568 204.54 341.753 205.685 342.983 206.78C343.503 207.237 344.263 207.692 344.785 207.237C345.067 206.993 345.137 206.582 345.194 206.188C345.49 204.258 345.771 202.328 346.067 200.398C346.236 199.319 346.814 197.905 347.8 198.179C348.278 198.317 348.56 198.817 348.827 199.274C349.152 199.851 354.94 206.431 355.053 205.929C355.954 202.191 357.8 198.787 358.701 195.049C364.532 170.994 338.658 151.649 318.896 151.543C314.503 151.513 310.488 151.584 306.221 152.602C301.67 153.697 296.868 155.434 292.741 157.88C286.952 161.299 282.571 167.514 283.698 174.93" fill="#444642"/>
<path d="M299.287 181.735C302.195 184.928 302.965 189.42 303.236 193.663C303.634 200.061 303.094 206.71 300.043 212.39C299.174 214.008 298.532 222.01 297.192 221.568C296.765 221.43 296.836 215.224 295.71 211.879C293.97 206.696 285.96 204.72 282.354 207.995C276.596 213.206 279.974 219.536 281.884 223.475C283.025 225.852 284.834 228.52 285.148 231.035C285.533 234.256 285.647 245.99 283.48 248.727C281.67 251.02 279.746 239.936 278.107 237.752C265.977 221.485 254.346 180.063 275.057 171.079C278.207 169.71 287.927 169.006 290.878 170.747" fill="#444642"/>
<path fill-rule="evenodd" clip-rule="evenodd" d="M433.851 192.337H437.707C438.64 192.337 439.391 191.578 439.391 190.653V186.796C439.391 185.864 438.633 185.113 437.707 185.113H433.851C433.405 185.114 432.977 185.292 432.662 185.608C432.347 185.923 432.169 186.35 432.167 186.796V190.653C432.166 190.874 432.21 191.094 432.294 191.298C432.378 191.503 432.502 191.688 432.659 191.845C432.815 192.001 433.001 192.125 433.206 192.21C433.41 192.294 433.629 192.337 433.851 192.337V192.337ZM447.224 192.337H451.081C451.527 192.335 451.954 192.157 452.269 191.842C452.585 191.526 452.763 191.099 452.764 190.653V186.796C452.764 185.864 452.006 185.113 451.081 185.113H447.224C446.778 185.114 446.351 185.292 446.035 185.608C445.72 185.923 445.542 186.35 445.54 186.796V190.653C445.542 191.099 445.72 191.526 446.035 191.842C446.351 192.157 446.778 192.335 447.224 192.337V192.337ZM460.606 192.337H464.462C464.908 192.335 465.336 192.157 465.651 191.842C465.966 191.526 466.144 191.099 466.146 190.653V186.796C466.146 185.864 465.388 185.113 464.462 185.113H460.606C460.16 185.114 459.732 185.292 459.417 185.608C459.101 185.923 458.924 186.35 458.922 186.796V190.653C458.921 190.874 458.965 191.094 459.049 191.298C459.133 191.503 459.257 191.688 459.414 191.845C459.57 192.001 459.756 192.125 459.961 192.21C460.165 192.294 460.384 192.337 460.606 192.337V192.337ZM473.979 192.337H477.836C478.282 192.335 478.709 192.157 479.024 191.842C479.34 191.526 479.518 191.099 479.519 190.653V186.796C479.519 185.864 478.761 185.113 477.836 185.113H473.979C473.047 185.113 472.287 185.871 472.287 186.796V190.653C472.292 191.1 472.472 191.526 472.789 191.841C473.105 192.156 473.533 192.334 473.979 192.337V192.337ZM487.353 192.337H491.21C492.143 192.337 492.902 191.578 492.902 190.653V186.796C492.902 185.864 492.143 185.113 491.21 185.113H487.353C486.907 185.114 486.48 185.292 486.165 185.608C485.849 185.923 485.671 186.35 485.67 186.796V190.653C485.671 191.099 485.849 191.526 486.165 191.842C486.48 192.157 486.907 192.335 487.353 192.337V192.337ZM447.714 177.755H451.571C452.495 177.755 453.255 176.995 453.255 176.071V172.205C453.253 171.759 453.075 171.332 452.76 171.017C452.444 170.702 452.017 170.524 451.571 170.522H447.714C446.781 170.522 446.031 171.281 446.031 172.205V176.063C446.029 176.285 446.072 176.505 446.156 176.71C446.24 176.915 446.364 177.102 446.52 177.259C446.677 177.417 446.863 177.541 447.068 177.626C447.273 177.711 447.493 177.755 447.714 177.755V177.755ZM461.088 177.755H464.945C465.391 177.753 465.818 177.575 466.133 177.26C466.449 176.944 466.627 176.517 466.628 176.071V172.205C466.626 171.759 466.448 171.332 466.133 171.017C465.818 170.702 465.39 170.524 464.945 170.522H461.088C460.642 170.524 460.215 170.702 459.9 171.017C459.584 171.332 459.406 171.759 459.404 172.205V176.063C459.403 176.285 459.445 176.505 459.529 176.71C459.613 176.915 459.737 177.102 459.894 177.259C460.05 177.417 460.236 177.541 460.441 177.626C460.646 177.711 460.866 177.755 461.088 177.755V177.755ZM474.461 177.755H478.318C479.252 177.755 480.01 176.995 480.01 176.071V172.205C480.01 171.281 479.252 170.522 478.318 170.522H474.461C474.015 170.524 473.588 170.702 473.273 171.017C472.958 171.332 472.779 171.759 472.778 172.205V176.063C472.778 176.995 473.537 177.755 474.461 177.755V177.755ZM460.606 208.004H464.462C464.908 208.002 465.336 207.824 465.651 207.509C465.966 207.193 466.144 206.766 466.146 206.32V202.462C466.146 201.53 465.388 200.779 464.462 200.779H460.606C460.16 200.78 459.732 200.958 459.417 201.274C459.101 201.589 458.924 202.016 458.922 202.462V206.32C458.921 206.541 458.965 206.761 459.049 206.965C459.133 207.17 459.257 207.355 459.414 207.512C459.57 207.668 459.756 207.792 459.961 207.877C460.165 207.961 460.384 208.004 460.606 208.004V208.004ZM473.979 208.004H477.836C478.282 208.002 478.709 207.824 479.024 207.509C479.34 207.193 479.518 206.766 479.519 206.32V202.462C479.519 201.53 478.761 200.779 477.836 200.779H473.979C473.047 200.779 472.287 201.538 472.287 202.462V206.32C472.292 206.767 472.472 207.193 472.789 207.508C473.105 207.823 473.533 208.001 473.979 208.004V208.004Z" fill="#E1E4E5"/>
<path d="M67.0909 409.65L71.805 468.285H104.426L109.15 409.65H67.0909Z" fill="#B6B9B3"/>
<path d="M64.3923 404.362H112.346V412.908H64.3923V404.362ZM67.6782 404.362H109.062L106.645 394.754H70.1048L67.6782 404.362Z" fill="#888F82"/>
<path d="M78.7793 439.512C78.779 440.771 79.0269 442.019 79.5088 443.182C79.9907 444.346 80.6971 445.403 81.5878 446.294C82.4784 447.185 83.5358 447.891 84.6996 448.373C85.8633 448.855 87.1106 449.103 88.3701 449.103C89.6297 449.103 90.877 448.855 92.0407 448.373C93.2044 447.891 94.2618 447.185 95.1525 446.294C96.0431 445.403 96.7496 444.346 97.2315 443.182C97.7133 442.019 97.9612 440.771 97.961 439.512C97.9614 438.252 97.7136 437.005 97.2317 435.841C96.7499 434.677 96.0434 433.62 95.1528 432.729C94.2621 431.838 93.2047 431.132 92.0409 430.65C90.8771 430.168 89.6297 429.92 88.3701 429.921C87.1106 429.921 85.8633 430.169 84.6996 430.65C83.5358 431.132 82.4784 431.839 81.5878 432.729C80.6971 433.62 79.9907 434.677 79.5088 435.841C79.0269 437.005 78.779 438.252 78.7793 439.512V439.512Z" fill="white"/>
<path fill-rule="evenodd" clip-rule="evenodd" d="M164.832 219.56V170.683C164.832 165.62 160.739 161.519 155.686 161.519H100.816C95.7634 161.519 91.6707 165.62 91.6707 170.683V219.56C91.6701 221.193 92.1061 222.797 92.9334 224.205C93.7608 225.613 94.9495 226.775 96.3764 227.57L123.811 242.841C125.17 243.598 126.699 243.996 128.253 243.996C129.808 243.996 131.337 243.598 132.695 242.841L160.132 227.57C161.557 226.774 162.744 225.612 163.57 224.203C164.397 222.795 164.832 221.192 164.832 219.56Z" fill="#E1E4E5"/>
<path d="M143.459 215.774H113.044M143.459 201.935H113.044H143.459ZM143.459 187.686H113.044H143.459Z" stroke="white" stroke-width="2.677" stroke-linecap="round" stroke-linejoin="round"/>
<path d="M126.26 352.467L145.042 371.249C145.726 371.933 145.726 373.042 145.042 373.726C144.359 374.409 143.25 374.409 142.566 373.725L123.784 354.944C123.1 354.259 123.1 353.151 123.784 352.467C124.467 351.783 125.576 351.783 126.26 352.467Z" fill="#E1E4E5"/>
<path d="M128.1 365.914L133.516 371.33C134.2 372.014 134.2 373.123 133.517 373.807C132.833 374.491 131.724 374.491 131.04 373.807L125.623 368.39C124.939 367.706 124.939 366.597 125.623 365.914C126.307 365.23 127.416 365.23 128.1 365.914Z" fill="#E1E4E5"/>
<defs>
<linearGradient id="paint0_linear_182_1682" x1="289.343" y1="623.749" x2="295.463" y2="-215.926" gradientUnits="userSpaceOnUse">
<stop stop-color="white"/>
<stop offset="1" stop-color="#EEEEEE"/>
</linearGradient>
</defs>
</svg>
