<svg width="600" height="600" viewBox="0 0 600 600" fill="none" xmlns="http://www.w3.org/2000/svg">
<rect width="600" height="600" fill="#CBD0D0"/>
<path d="M325.782 416.239C407.758 416.239 474.213 349.993 474.213 268.275C474.213 186.557 407.758 120.312 325.782 120.312C243.806 120.312 177.352 186.557 177.352 268.275C177.352 349.993 243.806 416.239 325.782 416.239Z" fill="#C26148"/>
<path d="M377.336 245.554C377.336 176.228 320.947 120 251.422 120C181.897 120 125.222 176.656 125.507 245.981C125.65 280.43 139.641 311.605 162.196 334.239C179.756 351.891 192.747 373.528 199.171 397.585L209.307 435.024H291.823L301.387 399.578C308.098 375.094 321.374 352.887 339.505 335.093C362.917 312.174 377.336 280.572 377.336 245.554V245.554Z" fill="#B6B9B3"/>
<path d="M250.857 480C228.257 480 209.885 461.671 209.885 439.151V431.185H291.829V439.151C291.829 461.81 273.461 480 250.857 480V480Z" fill="white" stroke="#E1E4E5" stroke-width="4.59"/>
<path d="M294.104 449.116H207.448C205.593 449.116 204.165 447.693 204.165 445.842C204.165 443.992 205.593 442.568 207.448 442.568H294.104C295.96 442.568 297.387 443.992 297.387 445.842C297.387 447.55 295.817 449.116 294.104 449.116ZM294.677 463.067H208.021C206.165 463.067 204.738 461.644 204.738 459.793C204.738 457.943 206.165 456.519 208.021 456.519H294.677C296.532 456.519 297.959 457.943 297.959 459.793C297.959 461.501 296.532 463.067 294.677 463.067V463.067Z" fill="#E1E4E5"/>
<path d="M199.958 265.076C197.461 265.076 195.174 265.68 193.148 266.872C190.536 268.421 188.34 271.516 186.984 275.574C185.637 279.606 185.178 284.43 185.901 289.202C188.457 306.025 202.491 324.171 234.479 329.369C232.518 310.38 229.261 293.371 224.051 283.238L199.958 265.076ZM199.958 265.076C201.519 265.076 203.15 265.304 204.855 265.772L199.958 265.076ZM199.958 265.076L204.855 265.772L199.958 265.076ZM204.855 265.772C212.244 267.89 219.475 274.341 224.051 283.238L204.855 265.772ZM265.168 426.726L265.237 428.173H270.859L270.798 426.594L270.795 426.52C270.703 424.259 268.734 376.074 272.445 334.675C307.561 329.436 323.687 309.331 326.607 289.991C327.47 284.265 326.919 278.538 325.238 273.683C323.564 268.845 320.721 264.748 316.896 262.475C312.324 259.746 306.853 259.239 301.154 260.869C292.229 263.409 283.932 270.977 278.791 280.926L278.79 280.928C273.005 292.16 269.612 310.466 267.628 330.136C263.294 330.621 258.67 330.875 253.713 330.875C248.755 330.875 244.131 330.621 239.797 330.136C237.813 310.44 234.419 292.16 228.635 280.928L228.634 280.926C223.493 270.978 215.196 263.409 206.272 260.869C200.573 259.24 195.103 259.745 190.532 262.474C186.691 264.746 183.847 268.844 182.176 273.683C180.498 278.54 179.955 284.267 180.818 289.991V289.992C183.738 309.304 199.864 329.409 234.98 334.674C238.69 376.071 236.722 424.253 236.629 426.519L236.626 426.594L236.565 428.173H242.188L242.256 426.725C242.396 423.759 243.954 376.651 240.31 335.298C244.527 335.713 249.016 335.948 253.74 335.948C258.458 335.948 262.947 335.735 267.171 335.306C263.526 376.657 265.028 423.784 265.168 426.726V426.726ZM272.974 329.397C274.935 310.406 278.192 293.373 283.4 283.268C288.01 274.361 295.218 267.886 302.6 265.799L302.611 265.797C304.306 265.305 305.933 265.076 307.496 265.076C309.993 265.076 312.275 265.681 314.296 266.895L314.304 266.899C316.916 268.447 319.113 271.543 320.469 275.602C321.816 279.634 322.276 284.457 321.552 289.229C318.996 306.026 304.961 324.198 272.974 329.397Z" fill="white" stroke="white" stroke-width="3.489"/>
<path d="M350.635 239.832C347.313 239.832 344.631 237.123 344.631 233.766C344.631 196.171 319.488 163.5 283.495 154.276C280.297 153.455 278.329 150.148 279.165 146.915C279.977 143.659 283.249 141.694 286.447 142.54C327.779 153.107 356.638 190.627 356.638 233.766C356.638 237.123 353.956 239.832 350.635 239.832V239.832ZM267.504 151.64C270.819 151.64 273.506 148.923 273.506 145.573C273.506 142.222 270.819 139.506 267.504 139.506C264.188 139.506 261.5 142.222 261.5 145.573C261.5 148.923 264.188 151.64 267.504 151.64Z" fill="white"/>
</svg>
