<svg width="600" height="600" viewBox="0 0 600 600" fill="none" xmlns="http://www.w3.org/2000/svg">
<rect width="600" height="600" fill="#CBD0D0"/>
<path d="M298.611 480.849C400.573 480.849 483.229 403.113 483.229 307.22C483.229 211.327 400.573 133.591 298.611 133.591C196.649 133.591 113.993 211.327 113.993 307.22C113.993 403.113 196.649 480.849 298.611 480.849Z" fill="white"/>
<path d="M386.682 331.894C385.427 336.579 381.933 340.559 376.426 343.698C370.912 346.841 363.476 349.077 354.585 350.278C336.812 352.68 313.521 350.906 288.955 344.323C264.389 337.741 243.331 327.631 229.14 316.665C222.041 311.179 216.72 305.525 213.515 300.047C210.314 294.574 209.279 289.38 210.535 284.695C211.79 280.011 215.284 276.03 220.791 272.891C226.306 269.749 233.742 267.512 242.632 266.311C260.405 263.909 283.696 265.684 308.262 272.267C332.828 278.849 353.887 288.957 368.078 299.924C375.176 305.409 380.498 311.064 383.702 316.543C386.903 322.015 387.938 327.209 386.682 331.894V331.894Z" stroke="#888F82" stroke-width="4"/>
<path d="M436.473 344.161C430.875 365.053 410.652 380.211 381.887 387.566C353.172 394.908 316.265 394.366 278.005 384.113C239.745 373.862 207.512 355.878 186.315 335.162C165.081 314.41 155.146 291.172 160.744 270.28C166.342 249.387 186.565 234.23 215.33 226.875C244.046 219.533 280.952 220.075 319.212 230.327C357.472 240.579 389.705 258.563 410.902 279.278C432.136 300.031 442.071 323.268 436.473 344.161V344.161Z" stroke="#888F82" stroke-width="4"/>
<path d="M479.086 349.985C470.731 381.166 443.317 404.286 405.353 416.298C367.407 428.304 319.118 429.128 269.509 415.836C219.899 402.543 178.492 377.685 151.633 348.314C124.761 318.93 112.58 285.199 120.935 254.019C129.29 222.838 156.704 199.717 194.668 187.706C232.614 175.699 280.903 174.875 330.512 188.168C380.121 201.461 421.528 226.319 448.387 255.69C475.259 285.074 487.441 318.804 479.086 349.985Z" stroke="#888F82" stroke-width="4"/>
<path d="M337.213 250.681C368.513 272.053 376.597 314.692 355.278 345.915C333.958 377.138 291.303 385.132 260.002 363.759C228.701 342.387 220.618 299.748 241.937 268.525C263.257 237.301 305.913 229.308 337.213 250.681V250.681Z" stroke="#888F82" stroke-width="4"/>
<path d="M509.736 474.301C509.736 474.301 478.885 449.866 458.555 447.065C438.44 444.294 385.416 447.542 346.07 430.864C345.701 430.71 345.397 430.433 345.211 430.08C345.025 429.726 344.967 429.319 345.049 428.928C345.674 426.079 348.626 420.015 362.812 420.603C381.276 421.401 395.427 421.645 395.427 421.645C395.427 421.645 338.706 365.579 324.466 349.243C321.653 346.02 319.752 343.112 318.512 340.469C314.649 332.224 325.245 324.818 331.809 331.131L370.232 368.061C370.232 368.061 368.415 362.273 372.473 358.682C376.32 355.293 386.064 357.161 391.753 363.296C391.753 363.296 390.261 356.626 396.675 353.669C403.088 350.714 411.515 355.821 415.09 359.135C415.09 359.135 412.287 353.081 416.292 349.621C420.296 346.161 430.916 349.533 433.764 351.568C436.613 353.603 463.206 366.334 492.02 402.008L548.473 419.494C548.473 419.494 556.374 440.386 509.736 474.301ZM90.264 135.194C90.264 135.194 121.116 159.629 141.445 162.431C161.56 165.201 214.585 161.953 253.93 178.631C254.299 178.784 254.603 179.062 254.79 179.415C254.976 179.769 255.033 180.176 254.951 180.567C254.326 183.416 251.374 189.481 237.189 188.891C218.725 188.094 204.573 187.85 204.573 187.85C204.573 187.85 261.294 243.917 275.534 260.251C278.347 263.475 280.249 266.383 281.488 269.027C285.352 277.272 274.756 284.677 268.191 278.364L229.769 241.434C229.769 241.434 231.585 247.222 227.528 250.814C223.681 254.201 213.937 252.334 208.247 246.199C208.247 246.199 209.739 252.87 203.326 255.825C196.912 258.782 188.485 253.674 184.911 250.36C184.911 250.36 187.714 256.415 183.709 259.874C179.704 263.333 169.085 259.962 166.236 257.927C163.388 255.891 136.795 243.161 107.981 207.486L51.527 190C51.527 190 43.6251 169.109 90.264 135.195V135.194Z" fill="#F8AE9D"/>
<path d="M298.618 280.046H298.931C300.784 304.66 320.309 305.039 320.309 305.039C320.309 305.039 298.778 305.433 298.778 333.874C298.778 305.433 277.247 305.039 277.247 305.039C277.247 305.039 296.765 304.66 298.618 280.046Z" fill="#C26148"/>
<path d="M496.006 356.279C503.496 361.437 514.938 357.831 514.938 357.831C514.938 357.831 514.23 345.862 506.735 340.709C499.245 335.55 487.809 339.151 487.809 339.151C487.809 339.151 488.517 351.12 496.006 356.279V356.279Z" fill="white"/>
<path d="M82.1902 313.799C89.9485 321.695 104.456 320.03 104.456 320.03C104.456 320.03 106.376 305.563 98.6104 297.672C90.8521 289.775 76.3517 291.435 76.3517 291.435C76.3517 291.435 74.4319 305.903 82.1902 313.799V313.799Z" fill="white"/>
<path d="M321.846 455.883C315.052 455.883 309.545 461.151 309.545 467.649C309.545 474.147 315.052 479.415 321.846 479.415C328.639 479.415 334.146 474.147 334.146 467.649C334.146 461.151 328.639 455.883 321.846 455.883Z" fill="#888F82"/>
<path d="M97.8228 359.926C93.8591 359.926 90.6459 363.139 90.6459 367.103C90.6459 371.067 93.8591 374.28 97.8228 374.28C101.787 374.28 105 371.067 105 367.103C105 363.139 101.787 359.926 97.8228 359.926Z" fill="#888F82"/>
<path d="M223.78 133.636C220.014 133.636 216.962 130.584 216.962 126.818C216.962 123.053 220.014 120 223.78 120C227.545 120 230.598 123.053 230.598 126.818C230.598 130.584 227.545 133.636 223.78 133.636Z" fill="#888F82"/>
<path d="M451.397 246.528C445.194 246.528 440.166 241.499 440.166 235.297C440.166 229.094 445.194 224.066 451.397 224.066C457.599 224.066 462.627 229.094 462.627 235.297C462.627 241.499 457.599 246.528 451.397 246.528Z" fill="#888F82"/>
<path d="M417.057 479.284C413.172 479.284 410.022 476.134 410.022 472.249C410.022 468.363 413.172 465.214 417.057 465.214C420.942 465.214 424.092 468.363 424.092 472.249C424.092 476.134 420.942 479.284 417.057 479.284Z" fill="#ADADAD"/>
<path d="M199.02 460.906C191.885 460.906 186.101 455.123 186.101 447.988C186.101 440.853 191.885 435.069 199.02 435.069C206.154 435.069 211.938 440.853 211.938 447.988C211.938 455.123 206.154 460.906 199.02 460.906Z" fill="#888F82"/>
<path d="M316.004 449.424C313.626 449.424 311.698 447.496 311.698 445.118C311.698 442.739 313.626 440.812 316.004 440.812C318.382 440.812 320.31 442.739 320.31 445.118C320.31 447.496 318.382 449.424 316.004 449.424Z" fill="#888F82"/>
<path d="M482.002 276.163C479.111 276.163 476.767 273.819 476.767 270.928C476.767 268.037 479.111 265.693 482.002 265.693C484.893 265.693 487.237 268.037 487.237 270.928C487.237 273.819 484.893 276.163 482.002 276.163Z" fill="#ADADAD"/>
<path d="M432.366 196.985C427.953 196.985 424.376 193.407 424.376 188.995C424.376 184.582 427.953 181.004 432.366 181.004C436.779 181.004 440.356 184.582 440.356 188.995C440.356 193.407 436.779 196.985 432.366 196.985Z" fill="#888F82"/>
<path d="M151.121 303.467C151.121 305.699 149.312 307.508 147.08 307.508C144.848 307.508 143.039 305.699 143.039 303.467C143.039 301.235 144.848 299.425 147.08 299.425C149.312 299.425 151.121 301.235 151.121 303.467Z" fill="#ADADAD"/>
<path d="M92.7431 223.954C89.9994 223.954 87.7751 221.73 87.7751 218.986C87.7751 216.243 89.9994 214.019 92.7431 214.019C95.4868 214.019 97.711 216.243 97.711 218.986C97.711 221.73 95.4868 223.954 92.7431 223.954Z" fill="#ADADAD"/>
<path d="M506.519 392.67C503.565 392.67 501.17 390.755 501.17 388.392C501.17 386.029 503.565 384.114 506.519 384.114C509.472 384.114 511.867 386.029 511.867 388.392C511.867 390.755 509.472 392.67 506.519 392.67Z" fill="#ADADAD"/>
<path d="M328.922 171.316C328.922 175.478 325.548 178.852 321.386 178.852C317.224 178.852 313.85 175.478 313.85 171.316C313.85 167.154 317.224 163.78 321.386 163.78C325.548 163.78 328.922 167.154 328.922 171.316Z" fill="#888F82"/>
<path d="M486.323 217.607H486.463C487.292 229.346 496.022 229.526 496.022 229.526C496.022 229.526 486.395 229.714 486.395 243.278C486.395 229.714 476.769 229.526 476.769 229.526C476.769 229.526 485.494 229.346 486.323 217.607ZM177.791 133.637H177.9C178.549 143.153 185.383 143.301 185.383 143.301C185.383 143.301 177.847 143.453 177.847 154.45C177.847 143.453 170.311 143.301 170.311 143.301C170.311 143.301 177.142 143.154 177.791 133.637Z" fill="#ADADAD"/>
<path d="M168.756 389.314C172.277 388.48 175.999 391.466 175.999 391.466C175.999 391.466 174.013 395.801 170.492 396.632C166.972 397.466 163.25 394.484 163.25 394.484C163.25 394.484 165.237 390.148 168.756 389.314V389.314Z" fill="white"/>
<path d="M185.238 311.769C182.118 309.62 177.352 311.122 177.352 311.122C177.352 311.122 177.647 316.108 180.769 318.254C183.888 320.403 188.652 318.903 188.652 318.903C188.652 318.903 188.357 313.917 185.238 311.769V311.769Z" fill="white"/>
<path d="M409.897 300.553C405.184 295.757 396.373 296.768 396.373 296.768C396.373 296.768 395.207 305.555 399.924 310.348C404.635 315.144 413.443 314.136 413.443 314.136C413.443 314.136 414.609 305.349 409.897 300.553Z" fill="white"/>
<path d="M194.48 292.529C199.508 292.529 203.584 288.638 203.584 283.839C203.584 279.039 199.508 275.148 194.48 275.148C189.452 275.148 185.376 279.039 185.376 283.839C185.376 288.638 189.452 292.529 194.48 292.529Z" fill="#888F82"/>
<path d="M481.565 194.188C486.593 194.188 490.669 190.112 490.669 185.084C490.669 180.056 486.593 175.98 481.565 175.98C476.537 175.98 472.461 180.056 472.461 185.084C472.461 190.112 476.537 194.188 481.565 194.188Z" fill="#888F82"/>
<path d="M142.702 425.74C147.273 425.74 150.979 429.631 150.979 434.431C150.979 439.231 147.273 443.122 142.702 443.122C138.131 443.122 134.426 439.231 134.426 434.431C134.426 429.631 138.131 425.74 142.702 425.74Z" fill="#888F82"/>
<path d="M504.616 296.554C508.501 296.554 511.65 299.703 511.65 303.589C511.65 307.474 508.501 310.624 504.616 310.624C500.73 310.624 497.581 307.474 497.581 303.589C497.581 299.703 500.73 296.554 504.616 296.554Z" fill="#888F82"/>
<path d="M253.315 205.625C255.638 205.625 257.522 207.509 257.522 209.832C257.522 212.156 255.638 214.04 253.315 214.04C250.991 214.04 249.107 212.156 249.107 209.832C249.107 207.509 250.991 205.625 253.315 205.625Z" fill="#888F82"/>
<path d="M393.407 176.657C395.851 176.657 397.833 178.638 397.833 181.082C397.833 183.526 395.851 185.507 393.407 185.507C390.963 185.507 388.982 183.526 388.982 181.082C388.982 178.638 390.963 176.657 393.407 176.657Z" fill="#888F82"/>
<path d="M211.093 336.467C212.298 336.467 213.274 337.444 213.274 338.648C213.274 339.852 212.298 340.828 211.093 340.828C209.889 340.828 208.913 339.852 208.913 338.648C208.913 337.444 209.889 336.467 211.093 336.467Z" fill="#ADADAD"/>
<path d="M257.609 455.883C259.447 455.883 260.937 457.373 260.937 459.211C260.937 461.049 259.447 462.539 257.609 462.539C255.771 462.539 254.281 461.049 254.281 459.211C254.281 457.373 255.771 455.883 257.609 455.883Z" fill="#888F82"/>
<path d="M378.443 276.553C378.443 274.123 380.413 272.152 382.844 272.152C385.274 272.152 387.245 274.123 387.245 276.553C387.245 278.984 385.274 280.954 382.844 280.954C380.413 280.954 378.443 278.984 378.443 276.553Z" fill="#ADADAD"/>
<path d="M451.895 305.167C454.41 305.167 456.448 307.205 456.448 309.719C456.448 312.233 454.41 314.271 451.895 314.271C449.381 314.271 447.343 312.233 447.343 309.719C447.343 307.205 449.381 305.167 451.895 305.167Z" fill="#ADADAD"/>
<path d="M108.818 252.801C113.161 252.801 116.681 255.58 116.681 259.008C116.681 262.437 113.161 265.216 108.818 265.216C104.476 265.216 100.955 262.437 100.955 259.008C100.955 255.58 104.476 252.801 108.818 252.801Z" fill="#ADADAD"/>
<path d="M229.617 423.85C228.969 421.433 230.404 418.949 232.821 418.301C235.238 417.653 237.722 419.088 238.37 421.505C239.018 423.922 237.583 426.406 235.166 427.054C232.749 427.702 230.265 426.267 229.617 423.85Z" fill="#888F82"/>
<path d="M201.831 366.952H201.773C201.428 362.062 197.792 361.987 197.792 361.987C197.792 361.987 201.802 361.909 201.802 356.259C201.802 361.909 205.812 361.987 205.812 361.987C205.812 361.987 202.176 362.062 201.831 366.952V366.952ZM333.05 392.531H332.981C332.577 386.681 328.311 386.591 328.311 386.591C328.311 386.591 333.015 386.498 333.015 379.738C333.015 386.498 337.718 386.591 337.718 386.591C337.718 386.591 333.455 386.681 333.05 392.531V392.531Z" fill="#ADADAD"/>
</svg>
