<svg width="600" height="600" viewBox="0 0 600 600" fill="none" xmlns="http://www.w3.org/2000/svg">
<rect width="600" height="600" fill="#CBD0D0"/>
<g clip-path="url(#clip0_2101_928)">
<path d="M508.008 299.421C493.599 306.569 474.475 297.379 474.475 297.379C474.475 297.379 478.725 276.604 493.141 269.466C507.55 262.318 526.667 271.499 526.667 271.499C526.667 271.499 522.417 292.274 508.008 299.421Z" fill="url(#paint0_linear_2101_928)"/>
<path d="M99.4855 338.904C118.312 350.188 145.323 339.757 145.323 339.757C145.323 339.757 141.791 311.036 122.953 299.765C104.126 288.48 77.127 298.899 77.127 298.899C77.127 298.899 80.6585 327.62 99.4855 338.904Z" fill="url(#paint1_linear_2101_928)"/>
<path d="M480.422 230.902C476.077 230.902 472.554 234.424 472.554 238.769C472.554 243.114 476.077 246.637 480.422 246.637C484.767 246.637 488.289 243.114 488.289 238.769C488.289 234.424 484.767 230.902 480.422 230.902Z" fill="#C26148"/>
<path d="M373.066 206.234C368.178 206.234 364.215 210.197 364.215 215.085C364.215 219.974 368.178 223.937 373.066 223.937C377.955 223.937 381.917 219.974 381.917 215.085C381.917 210.197 377.955 206.234 373.066 206.234Z" fill="#C26148"/>
<path d="M124.797 238.687C120.724 238.687 117.422 235.385 117.422 231.311C117.422 227.238 120.724 223.936 124.797 223.936C128.871 223.936 132.173 227.238 132.173 231.311C132.173 235.385 128.871 238.687 124.797 238.687Z" fill="#C26148"/>
<path d="M412.947 273.107C411.046 273.107 409.505 271.566 409.505 269.665C409.505 267.764 411.046 266.223 412.947 266.223C414.848 266.223 416.389 267.764 416.389 269.665C416.389 271.566 414.848 273.107 412.947 273.107Z" fill="#C26148"/>
<path d="M432.812 427.679C430.368 427.679 428.387 425.698 428.387 423.253C428.387 420.809 430.368 418.828 432.812 418.828C435.256 418.828 437.237 420.809 437.237 423.253C437.237 425.698 435.256 427.679 432.812 427.679Z" fill="#E1E4E5"/>
<path d="M123.478 383.694C119.948 383.694 117.086 380.832 117.086 377.302C117.086 373.771 119.948 370.909 123.478 370.909C127.009 370.909 129.871 373.771 129.871 377.302C129.871 380.832 127.009 383.694 123.478 383.694Z" fill="#E1E4E5"/>
<path d="M222.422 229.789C219.735 229.789 217.556 227.611 217.556 224.924C217.556 222.237 219.735 220.059 222.422 220.059C225.109 220.059 227.287 222.237 227.287 224.924C227.287 227.611 225.109 229.789 222.422 229.789Z" fill="#E1E4E5"/>
<path d="M457.378 207.435C454.391 207.435 451.969 205.014 451.969 202.026C451.969 199.039 454.391 196.617 457.378 196.617C460.366 196.617 462.788 199.039 462.788 202.026C462.788 205.014 460.366 207.435 457.378 207.435Z" fill="#E1E4E5"/>
<path d="M156.671 194.698C157.366 197.289 155.828 199.953 153.237 200.647C150.646 201.341 147.982 199.803 147.288 197.212C146.594 194.621 148.131 191.958 150.723 191.263C153.314 190.569 155.977 192.107 156.671 194.698Z" fill="#E1E4E5"/>
<path d="M278.715 186.7C275.146 186.7 272.253 183.808 272.253 180.239C272.253 176.67 275.146 173.777 278.715 173.777C282.283 173.777 285.176 176.67 285.176 180.239C285.176 183.808 282.283 186.7 278.715 186.7Z" fill="#E1E4E5"/>
<path d="M467.529 342.3C464.784 342.3 462.559 340.52 462.559 338.323C462.559 336.127 464.784 334.347 467.529 334.347C470.274 334.347 472.5 336.127 472.5 338.323C472.5 340.52 470.274 342.3 467.529 342.3Z" fill="#E1E4E5"/>
<path d="M433.243 164.307C434.688 169.7 431.488 175.243 426.095 176.688C420.702 178.133 415.159 174.933 413.714 169.54C412.269 164.147 415.469 158.604 420.862 157.159C426.255 155.714 431.798 158.914 433.243 164.307Z" fill="#E1E4E5"/>
<path d="M460.85 381.744H460.98C461.75 392.654 469.863 392.822 469.863 392.822C469.863 392.822 460.916 392.997 460.916 405.603C460.916 392.997 451.969 392.822 451.969 392.822C451.969 392.822 460.08 392.654 460.85 381.744ZM178.414 416.923H178.53C179.212 426.797 186.412 426.949 186.412 426.949C186.412 426.949 178.473 427.107 178.473 438.516C178.473 427.107 170.534 426.949 170.534 426.949C170.534 426.949 177.731 426.797 178.414 416.923Z" fill="#E1E4E5"/>
<path d="M300.502 449.06C382.826 449.06 449.563 382.323 449.563 299.999C449.563 217.675 382.826 150.938 300.502 150.938C218.177 150.938 151.44 217.675 151.44 299.999C151.44 382.323 218.177 449.06 300.502 449.06Z" stroke="#C26148" stroke-width="17.8767" stroke-linecap="round" stroke-linejoin="round"/>
<path d="M201.127 411.298L208.698 290.169C209.516 277.075 220.374 266.875 233.493 266.875H367.509C380.628 266.875 391.486 277.075 392.304 290.168L399.876 411.298M343.562 266.869V260.707C343.562 236.924 324.283 217.645 300.5 217.645C276.718 217.645 257.438 236.924 257.438 260.707V266.869" stroke="#C26148" stroke-width="17.8767" stroke-linecap="round" stroke-linejoin="round"/>
<path fill-rule="evenodd" clip-rule="evenodd" d="M272.129 375.17C272.129 375.17 282.831 381.781 300.679 381.781C318.527 381.781 329.229 375.17 329.229 375.17" fill="#C26148"/>
<path d="M272.129 375.17C272.129 375.17 282.831 381.781 300.679 381.781C318.527 381.781 329.229 375.17 329.229 375.17" stroke="#C26148" stroke-width="12.7143" stroke-linecap="round" stroke-linejoin="round"/>
<path d="M278.935 334.705C278.935 342.423 272.531 348.691 264.617 348.691C256.704 348.691 250.3 342.423 250.3 334.705C250.3 326.987 256.704 320.719 264.617 320.719C272.531 320.719 278.935 326.987 278.935 334.705ZM350.395 334.705C350.395 342.423 343.99 348.691 336.077 348.691C328.163 348.691 321.759 342.423 321.759 334.705C321.759 326.987 328.163 320.719 336.077 320.719C343.99 320.719 350.395 326.987 350.395 334.705Z" fill="#C26148" stroke="#C26148" stroke-width="0.576667"/>
</g>
<defs>
<linearGradient id="paint0_linear_2101_928" x1="452.676" y1="321.717" x2="571.522" y2="227.709" gradientUnits="userSpaceOnUse">
<stop stop-color="white"/>
<stop offset="1" stop-color="#EEEEEE"/>
</linearGradient>
<linearGradient id="paint1_linear_2101_928" x1="172.341" y1="375.226" x2="20.8523" y2="234.473" gradientUnits="userSpaceOnUse">
<stop stop-color="white"/>
<stop offset="1" stop-color="#EEEEEE"/>
</linearGradient>
<clipPath id="clip0_2101_928">
<rect width="519" height="346" fill="white" transform="translate(40.5 127)"/>
</clipPath>
</defs>
</svg>
