<svg width="600" height="435" viewBox="0 0 600 435" fill="none" xmlns="http://www.w3.org/2000/svg">
<path d="M298.327 434.795C421.183 434.795 520.777 341.129 520.777 225.585C520.777 110.042 421.183 16.376 298.327 16.376C175.471 16.376 75.877 110.042 75.877 225.585C75.877 341.129 175.471 434.795 298.327 434.795Z" fill="white"/>
<path d="M404.444 255.315C402.932 260.96 398.722 265.756 392.086 269.538C385.442 273.325 376.482 276.019 365.77 277.467C344.355 280.361 316.291 278.223 286.69 270.291C257.09 262.36 231.717 250.179 214.618 236.966C206.065 230.356 199.653 223.543 195.792 216.942C191.935 210.348 190.688 204.09 192.201 198.444C193.713 192.8 197.923 188.004 204.559 184.222C211.204 180.436 220.164 177.74 230.875 176.293C252.29 173.399 280.354 175.538 309.954 183.469C339.555 191.4 364.929 203.58 382.028 216.794C390.58 223.403 396.993 230.217 400.853 236.819C404.71 243.412 405.957 249.671 404.444 255.315V255.315Z" stroke="#888F82" stroke-width="4"/>
<path d="M464.439 270.096C457.694 295.27 433.327 313.533 398.667 322.395C364.068 331.241 319.598 330.588 273.498 318.235C227.398 305.883 188.559 284.214 163.019 259.253C137.434 234.249 125.463 206.248 132.208 181.075C138.953 155.901 163.32 137.638 197.98 128.775C232.579 119.929 277.048 120.583 323.149 132.935C369.249 145.287 408.088 166.957 433.628 191.917C459.213 216.922 471.184 244.922 464.439 270.096V270.096Z" stroke="#888F82" stroke-width="4"/>
<path d="M515.784 277.113C505.717 314.684 472.685 342.542 426.942 357.015C381.22 371.482 323.036 372.475 263.261 356.458C203.485 340.442 153.593 310.49 121.23 275.101C88.8514 239.695 74.1746 199.052 84.2413 161.482C94.3081 123.911 127.34 96.0528 173.083 81.5801C218.806 67.1133 276.99 66.1206 336.764 82.137C396.54 98.1542 446.432 128.106 478.795 163.495C511.174 198.902 525.852 239.543 515.784 277.113Z" stroke="#888F82" stroke-width="4"/>
<path d="M344.838 157.46C382.552 183.211 392.292 234.587 366.604 272.209C340.916 309.83 289.52 319.462 251.804 293.71C214.09 267.958 204.35 216.582 230.038 178.96C255.727 141.338 307.124 131.708 344.838 157.46V157.46Z" stroke="#888F82" stroke-width="4"/>
<path d="M552.715 426.903C552.715 426.903 515.542 397.461 491.046 394.086C466.809 390.747 402.919 394.661 355.511 374.565C355.066 374.38 354.7 374.046 354.475 373.62C354.251 373.195 354.182 372.704 354.281 372.233C355.034 368.8 358.591 361.493 375.683 362.202C397.931 363.163 414.982 363.457 414.982 363.457C414.982 363.457 346.638 295.902 329.479 276.219C326.09 272.335 323.799 268.831 322.305 265.646C317.651 255.712 330.418 246.788 338.328 254.396L384.624 298.893C384.624 298.893 382.434 291.919 387.325 287.592C391.96 283.509 403.7 285.759 410.555 293.151C410.555 293.151 408.757 285.114 416.485 281.552C424.213 277.991 434.366 284.145 438.674 288.137C438.674 288.137 435.297 280.843 440.122 276.675C444.948 272.506 457.743 276.568 461.175 279.02C464.607 281.473 496.65 296.812 531.368 339.797L599.39 360.866C599.39 360.866 608.911 386.039 552.715 426.903ZM47.285 18.3066C47.285 18.3066 84.4588 47.7486 108.954 51.1247C133.191 54.4627 197.081 50.5487 244.49 70.6451C244.934 70.8297 245.301 71.1639 245.525 71.5899C245.75 72.0159 245.818 72.507 245.719 72.9782C244.967 76.4105 241.409 83.7178 224.317 83.0078C202.07 82.0471 185.018 81.7531 185.018 81.7531C185.018 81.7531 253.362 149.309 270.521 168.991C273.91 172.876 276.202 176.38 277.695 179.565C282.35 189.499 269.583 198.422 261.673 190.815L215.377 146.318C215.377 146.318 217.566 153.292 212.676 157.619C208.041 161.701 196.301 159.451 189.445 152.059C189.445 152.059 191.243 160.097 183.516 163.658C175.787 167.22 165.634 161.066 161.326 157.073C161.326 157.073 164.704 164.368 159.879 168.536C155.053 172.704 142.258 168.643 138.825 166.19C135.393 163.738 103.351 148.398 68.6327 105.413L0.60988 84.3439C0.60988 84.3439 -8.91124 59.1713 47.285 18.3075V18.3066Z" fill="#F8AE9D"/>
<path d="M298.336 192.844H298.713C300.945 222.501 324.472 222.958 324.472 222.958C324.472 222.958 298.528 223.432 298.528 257.701C298.528 223.432 272.585 222.958 272.585 222.958C272.585 222.958 296.103 222.501 298.336 192.844Z" fill="#C26148"/>
<path d="M536.171 284.697C545.196 290.912 558.982 286.568 558.982 286.568C558.982 286.568 558.129 272.146 549.099 265.937C540.074 259.721 526.294 264.06 526.294 264.06C526.294 264.06 527.147 278.481 536.171 284.697Z" fill="white"/>
<path d="M37.5564 233.512C46.9046 243.026 64.385 241.02 64.385 241.02C64.385 241.02 66.6983 223.588 57.3415 214.08C47.9933 204.566 30.5215 206.566 30.5215 206.566C30.5215 206.566 28.2083 223.998 37.5564 233.512Z" fill="white"/>
<path d="M326.322 404.712C318.136 404.712 311.501 411.06 311.501 418.889C311.501 426.719 318.136 433.066 326.322 433.066C334.508 433.066 341.143 426.719 341.143 418.889C341.143 411.06 334.508 404.712 326.322 404.712Z" fill="#888F82"/>
<path d="M56.3934 289.09C51.6174 289.09 47.7457 292.962 47.7457 297.738C47.7457 302.514 51.6174 306.386 56.3934 306.386C61.1694 306.386 65.0411 302.514 65.0411 297.738C65.0411 292.962 61.1694 289.09 56.3934 289.09Z" fill="#888F82"/>
<path d="M208.161 16.4306C203.623 16.4306 199.945 12.7525 199.945 8.21531C199.945 3.67812 203.623 0 208.161 0C212.698 0 216.376 3.67812 216.376 8.21531C216.376 12.7525 212.698 16.4306 208.161 16.4306Z" fill="#888F82"/>
<path d="M482.42 152.455C474.946 152.455 468.888 146.397 468.888 138.924C468.888 131.45 474.946 125.392 482.42 125.392C489.893 125.392 495.952 131.45 495.952 138.924C495.952 146.397 489.893 152.455 482.42 152.455Z" fill="#888F82"/>
<path d="M441.045 432.907C436.363 432.907 432.568 429.112 432.568 424.431C432.568 419.749 436.363 415.954 441.045 415.954C445.726 415.954 449.521 419.749 449.521 424.431C449.521 429.112 445.726 432.907 441.045 432.907Z" fill="#ADADAD"/>
<path d="M178.327 410.765C169.73 410.765 162.761 403.796 162.761 395.2C162.761 386.603 169.73 379.634 178.327 379.634C186.924 379.634 193.893 386.603 193.893 395.2C193.893 403.796 186.924 410.765 178.327 410.765Z" fill="#888F82"/>
<path d="M319.283 396.929C316.418 396.929 314.095 394.606 314.095 391.74C314.095 388.875 316.418 386.552 319.283 386.552C322.149 386.552 324.472 388.875 324.472 391.74C324.472 394.606 322.149 396.929 319.283 396.929Z" fill="#888F82"/>
<path d="M519.299 188.163C515.815 188.163 512.991 185.339 512.991 181.855C512.991 178.372 515.815 175.548 519.299 175.548C522.782 175.548 525.606 178.372 525.606 181.855C525.606 185.339 522.782 188.163 519.299 188.163Z" fill="#ADADAD"/>
<path d="M459.491 92.7598C454.174 92.7598 449.863 88.4495 449.863 83.1324C449.863 77.8153 454.174 73.5049 459.491 73.5049C464.808 73.5049 469.118 77.8153 469.118 83.1324C469.118 88.4495 464.808 92.7598 459.491 92.7598Z" fill="#888F82"/>
<path d="M120.613 221.062C120.613 223.751 118.433 225.931 115.743 225.931C113.054 225.931 110.874 223.751 110.874 221.062C110.874 218.373 113.054 216.192 115.743 216.192C118.433 216.192 120.613 218.373 120.613 221.062Z" fill="#ADADAD"/>
<path d="M50.2717 125.257C46.9658 125.257 44.2858 122.577 44.2858 119.271C44.2858 115.965 46.9658 113.285 50.2717 113.285C53.5776 113.285 56.2576 115.965 56.2576 119.271C56.2576 122.577 53.5776 125.257 50.2717 125.257Z" fill="#ADADAD"/>
<path d="M548.839 328.545C545.28 328.545 542.394 326.237 542.394 323.39C542.394 320.543 545.28 318.235 548.839 318.235C552.398 318.235 555.283 320.543 555.283 323.39C555.283 326.237 552.398 328.545 548.839 328.545Z" fill="#ADADAD"/>
<path d="M334.849 61.8311C334.849 66.8459 330.784 70.9111 325.769 70.9111C320.754 70.9111 316.689 66.8459 316.689 61.8311C316.689 56.8163 320.754 52.751 325.769 52.751C330.784 52.751 334.849 56.8163 334.849 61.8311Z" fill="#888F82"/>
<path d="M524.505 117.609H524.673C525.671 131.753 536.19 131.97 536.19 131.97C536.19 131.97 524.591 132.197 524.591 148.54C524.591 132.197 512.992 131.97 512.992 131.97C512.992 131.97 523.506 131.753 524.505 117.609ZM152.748 16.4307H152.88C153.661 27.8975 161.896 28.0748 161.896 28.0748C161.896 28.0748 152.816 28.2581 152.816 41.509C152.816 28.2581 143.735 28.0748 143.735 28.0748C143.735 28.0748 151.966 27.8984 152.748 16.4307Z" fill="#ADADAD"/>
<path d="M141.861 324.502C146.103 323.498 150.589 327.095 150.589 327.095C150.589 327.095 148.195 332.318 143.952 333.32C139.711 334.325 135.227 330.731 135.227 330.731C135.227 330.731 137.621 325.507 141.861 324.502Z" fill="white"/>
<path d="M161.72 231.066C157.961 228.477 152.218 230.287 152.218 230.287C152.218 230.287 152.574 236.295 156.335 238.881C160.095 241.47 165.835 239.663 165.835 239.663C165.835 239.663 165.479 233.655 161.72 231.066Z" fill="white"/>
<path d="M432.417 217.552C426.739 211.774 416.122 212.992 416.122 212.992C416.122 212.992 414.717 223.579 420.4 229.354C426.077 235.134 436.69 233.919 436.69 233.919C436.69 233.919 438.095 223.331 432.417 217.552Z" fill="white"/>
<path d="M172.857 207.883C178.915 207.883 183.826 203.195 183.826 197.412C183.826 191.629 178.915 186.94 172.857 186.94C166.798 186.94 161.887 191.629 161.887 197.412C161.887 203.195 166.798 207.883 172.857 207.883Z" fill="#888F82"/>
<path d="M518.772 89.3914C524.83 89.3914 529.741 84.4801 529.741 78.4218C529.741 72.3634 524.83 67.4521 518.772 67.4521C512.713 67.4521 507.802 72.3634 507.802 78.4218C507.802 84.4801 512.713 89.3914 518.772 89.3914Z" fill="#888F82"/>
<path d="M110.469 368.392C115.977 368.392 120.442 373.08 120.442 378.863C120.442 384.647 115.977 389.335 110.469 389.335C104.962 389.335 100.497 384.647 100.497 378.863C100.497 373.08 104.962 368.392 110.469 368.392Z" fill="#888F82"/>
<path d="M546.545 212.734C551.226 212.734 555.021 216.529 555.021 221.21C555.021 225.891 551.226 229.687 546.545 229.687C541.863 229.687 538.068 225.891 538.068 221.21C538.068 216.529 541.863 212.734 546.545 212.734Z" fill="#888F82"/>
<path d="M243.748 103.171C246.547 103.171 248.817 105.441 248.817 108.24C248.817 111.04 246.547 113.31 243.748 113.31C240.948 113.31 238.678 111.04 238.678 108.24C238.678 105.441 240.948 103.171 243.748 103.171Z" fill="#888F82"/>
<path d="M412.548 68.2663C415.493 68.2663 417.88 70.6536 417.88 73.5985C417.88 76.5434 415.493 78.9307 412.548 78.9307C409.603 78.9307 407.216 76.5434 407.216 73.5985C407.216 70.6536 409.603 68.2663 412.548 68.2663Z" fill="#888F82"/>
<path d="M192.874 260.826C194.325 260.826 195.501 262.002 195.501 263.453C195.501 264.904 194.325 266.08 192.874 266.08C191.423 266.08 190.247 264.904 190.247 263.453C190.247 262.002 191.423 260.826 192.874 260.826Z" fill="#ADADAD"/>
<path d="M248.923 404.712C251.137 404.712 252.933 406.507 252.933 408.722C252.933 410.937 251.137 412.732 248.923 412.732C246.708 412.732 244.913 410.937 244.913 408.722C244.913 406.507 246.708 404.712 248.923 404.712Z" fill="#888F82"/>
<path d="M394.517 188.634C394.517 185.705 396.891 183.331 399.819 183.331C402.748 183.331 405.122 185.705 405.122 188.634C405.122 191.562 402.748 193.937 399.819 193.937C396.891 193.937 394.517 191.562 394.517 188.634Z" fill="#ADADAD"/>
<path d="M483.021 223.111C486.05 223.111 488.506 225.566 488.506 228.596C488.506 231.625 486.05 234.081 483.021 234.081C479.991 234.081 477.536 231.625 477.536 228.596C477.536 225.566 479.991 223.111 483.021 223.111Z" fill="#ADADAD"/>
<path d="M69.6408 160.016C74.8734 160.016 79.1152 163.364 79.1152 167.495C79.1152 171.626 74.8734 174.975 69.6408 174.975C64.4082 174.975 60.1664 171.626 60.1664 167.495C60.1664 163.364 64.4082 160.016 69.6408 160.016Z" fill="#ADADAD"/>
<path d="M215.194 366.115C214.413 363.203 216.142 360.209 219.054 359.429C221.966 358.649 224.96 360.377 225.74 363.289C226.521 366.202 224.792 369.195 221.88 369.975C218.968 370.756 215.974 369.028 215.194 366.115Z" fill="#888F82"/>
<path d="M181.715 297.558H181.645C181.229 291.666 176.848 291.576 176.848 291.576C176.848 291.576 181.68 291.481 181.68 284.674C181.68 291.481 186.511 291.576 186.511 291.576C186.511 291.576 182.131 291.666 181.715 297.558ZM339.824 328.379H339.741C339.253 321.331 334.113 321.222 334.113 321.222C334.113 321.222 339.781 321.109 339.781 312.964C339.781 321.109 345.448 321.222 345.448 321.222C345.448 321.222 340.311 321.331 339.824 328.379Z" fill="#ADADAD"/>
</svg>
