<svg width="600" height="600" viewBox="0 0 600 600" fill="none" xmlns="http://www.w3.org/2000/svg">
<rect width="600" height="600" fill="#CBD0D0"/>
<path d="M197.146 170.802H132.137C124.183 170.802 117.735 177.25 117.735 185.204V250.212C117.735 258.166 124.183 264.614 132.137 264.614H197.146C205.1 264.614 211.548 258.166 211.548 250.212V185.204C211.548 177.25 205.1 170.802 197.146 170.802Z" fill="#888F82"/>
<path d="M458.424 353.775H397.293C389.338 353.775 382.891 360.223 382.891 368.177V429.309C382.891 437.263 389.338 443.711 397.293 443.711H458.424C466.378 443.711 472.826 437.263 472.826 429.309V368.177C472.826 360.223 466.378 353.775 458.424 353.775Z" fill="#888F82"/>
<path d="M213.874 446.812C239.565 446.812 260.392 425.985 260.392 400.294C260.392 374.602 239.565 353.775 213.874 353.775C188.182 353.775 167.355 374.602 167.355 400.294C167.355 425.985 188.182 446.812 213.874 446.812Z" fill="#C26148"/>
<path d="M539.891 323.537C555.52 323.537 568.19 310.868 568.19 295.239C568.19 279.61 555.52 266.94 539.891 266.94C524.262 266.94 511.593 279.61 511.593 295.239C511.593 310.868 524.262 323.537 539.891 323.537Z" fill="#C26148"/>
<path d="M407.796 264.641C431.654 264.641 450.994 245.301 450.994 221.443C450.994 197.586 431.654 178.245 407.796 178.245C383.938 178.245 364.598 197.586 364.598 221.443C364.598 245.301 383.938 264.641 407.796 264.641Z" fill="#C26148"/>
<path fill-rule="evenodd" clip-rule="evenodd" d="M114.074 406.201C114.258 406.023 114.44 405.843 114.622 405.663C133.308 386.975 133.308 356.678 114.622 337.991C95.9344 319.304 65.6369 319.304 46.9496 337.991C46.7688 338.172 46.5895 338.354 46.4117 338.538L114.074 406.201V406.201Z" fill="#E1E4E5"/>
<path fill-rule="evenodd" clip-rule="evenodd" d="M326.832 259.173C326.843 258.755 326.849 258.336 326.849 257.915C326.849 232.926 306.592 212.668 281.603 212.668C256.615 212.668 236.357 232.926 236.357 257.915C236.357 258.336 236.363 258.755 236.374 259.173H326.832ZM342.974 443.656C343.278 443.368 343.579 443.076 343.876 442.779C361.546 425.109 361.546 396.46 343.876 378.791C326.207 361.121 297.558 361.121 279.888 378.791C279.591 379.088 279.298 379.389 279.011 379.693L342.974 443.656V443.656Z" fill="#B6B9B3"/>
<path d="M59.5244 235.1C62.296 230.3 69.2256 230.3 71.9972 235.1L99.114 282.069C101.886 286.87 98.4213 292.87 92.878 292.87H38.6436C33.1003 292.87 29.6352 286.87 32.4076 282.069L59.5244 235.1V235.1Z" fill="#C26148"/>
<path d="M355.084 154C360.627 154 364.092 160.001 361.321 164.802L339.929 201.851C337.158 206.652 330.229 206.652 327.457 201.851L306.067 164.802C303.295 160.001 306.759 154 312.303 154H355.084ZM549.211 352.274C554.754 352.274 558.218 358.274 555.447 363.075L528.33 410.044C525.558 414.844 518.629 414.844 515.857 410.044L488.739 363.075C485.968 358.274 489.433 352.274 494.976 352.274H549.211V352.274Z" fill="#E1E4E5"/>
<path d="M475.799 250.358C470.255 250.358 466.791 244.357 469.563 239.556L497.923 190.435C500.695 185.634 507.624 185.634 510.395 190.435L538.756 239.556C541.527 244.357 538.063 250.358 532.52 250.358H475.799Z" fill="#B6B9B3"/>
<path d="M463.523 287.874H162.703C147.288 287.874 134.792 300.37 134.792 315.785C134.792 331.199 147.288 343.696 162.703 343.696H463.523C478.938 343.696 491.434 331.199 491.434 315.785C491.434 300.37 478.938 287.874 463.523 287.874Z" fill="white" stroke="#E1E4E5" stroke-width="4"/>
<path d="M176.116 318.979L185.187 328.174M176.183 305.833C179.799 309.449 179.799 315.311 176.183 318.927C172.567 322.543 166.705 322.543 163.09 318.927C159.473 315.311 159.473 309.449 163.09 305.833C166.705 302.217 172.567 302.217 176.183 305.833Z" stroke="#E1E4E5" stroke-width="4" stroke-linecap="round" stroke-linejoin="round"/>
<path fill-rule="evenodd" clip-rule="evenodd" d="M41.6014 419.495H44.8022C45.5763 419.495 46.1992 420.125 46.1992 420.892V424.093C46.1992 424.867 45.5698 425.49 44.8022 425.49H41.6014C41.2313 425.488 40.8767 425.341 40.615 425.079C40.3533 424.817 40.2057 424.463 40.2044 424.093V420.892C40.204 420.709 40.2399 420.527 40.31 420.357C40.38 420.188 40.4829 420.034 40.6127 419.904C40.7425 419.774 40.8967 419.671 41.0663 419.601C41.236 419.531 41.4178 419.495 41.6014 419.495ZM52.6981 419.495H55.8982C56.6659 419.495 57.2952 420.125 57.2952 420.892V424.093C57.2952 424.867 56.6659 425.49 55.8982 425.49H52.6981C52.328 425.488 51.9735 425.341 51.7118 425.079C51.4501 424.817 51.3025 424.463 51.3011 424.093V420.892C51.3011 420.125 51.9305 419.495 52.6981 419.495ZM63.8021 419.495H67.0022C67.7698 419.495 68.3992 420.125 68.3992 420.892V424.093C68.3992 424.867 67.7698 425.49 67.0022 425.49H63.8021C63.432 425.488 63.0774 425.341 62.8157 425.079C62.554 424.817 62.4064 424.463 62.4051 424.093V420.892C62.4046 420.709 62.4404 420.527 62.5104 420.357C62.5805 420.188 62.6834 420.033 62.8132 419.904C62.943 419.774 63.0972 419.671 63.2669 419.601C63.4366 419.531 63.6185 419.495 63.8021 419.495V419.495ZM74.8981 419.495H78.0989C78.8658 419.495 79.4959 420.125 79.4959 420.892V424.093C79.4959 424.867 78.8658 425.49 78.0989 425.49H74.8981C74.527 425.489 74.1712 425.342 73.9082 425.081C73.6452 424.819 73.4965 424.464 73.4946 424.093V420.892C73.4986 420.522 73.6479 420.168 73.9104 419.907C74.173 419.645 74.5277 419.498 74.8981 419.495ZM85.9955 419.495H89.1964C89.5674 419.496 89.9233 419.643 90.1863 419.904C90.4493 420.166 90.598 420.521 90.5999 420.892V424.093C90.5999 424.867 89.9698 425.49 89.1964 425.49H85.9955C85.6255 425.488 85.2709 425.341 85.0092 425.079C84.7475 424.817 84.5999 424.463 84.5986 424.093V420.892C84.5986 420.125 85.2286 419.495 85.9955 419.495ZM53.105 431.596H56.3058C57.0727 431.596 57.7028 432.225 57.7028 432.992V436.2C57.7028 436.967 57.0727 437.597 56.3058 437.597H53.105C52.7345 437.596 52.3793 437.449 52.1174 437.187C51.8554 436.925 51.7082 436.57 51.708 436.2V432.999C51.7068 432.815 51.7421 432.633 51.8119 432.463C51.8816 432.292 51.9843 432.137 52.1142 432.007C52.2441 431.876 52.3985 431.773 52.5685 431.702C52.7386 431.632 52.9209 431.596 53.105 431.596ZM64.2017 431.596H67.4018C68.1695 431.596 68.7988 432.225 68.7988 432.992V436.2C68.7988 436.967 68.1695 437.597 67.4018 437.597H64.2017C63.8316 437.595 63.4771 437.448 63.2154 437.186C62.9537 436.924 62.8061 436.57 62.8047 436.2V432.999C62.8036 432.815 62.8389 432.633 62.9086 432.463C62.9783 432.292 63.0811 432.137 63.211 432.007C63.3408 431.876 63.4952 431.773 63.6653 431.702C63.8353 431.632 64.0176 431.596 64.2017 431.596V431.596ZM75.2985 431.596H78.4993C79.2734 431.596 79.9028 432.225 79.9028 432.992V436.2C79.9028 436.967 79.2734 437.597 78.4993 437.597H75.2985C74.9284 437.595 74.574 437.447 74.3123 437.186C74.0507 436.924 73.903 436.57 73.9015 436.2V432.999C73.9017 432.628 74.0487 432.273 74.3105 432.01C74.5722 431.747 74.9274 431.598 75.2985 431.596V431.596ZM63.8021 406.496H67.0022C67.7698 406.496 68.3992 407.126 68.3992 407.893V411.094C68.3992 411.867 67.7698 412.491 67.0022 412.491H63.8021C63.432 412.489 63.0776 412.342 62.8159 412.08C62.5543 411.819 62.4066 411.464 62.4051 411.094V407.893C62.4046 407.71 62.4404 407.528 62.5104 407.358C62.5805 407.188 62.6834 407.034 62.8132 406.904C62.943 406.774 63.0972 406.672 63.2669 406.602C63.4366 406.531 63.6185 406.496 63.8021 406.496V406.496ZM74.8981 406.496H78.0989C78.8658 406.496 79.4959 407.126 79.4959 407.893V411.094C79.4959 411.867 78.8658 412.491 78.0989 412.491H74.8981C74.527 412.491 74.1712 412.344 73.9082 412.082C73.6452 411.82 73.4965 411.465 73.4946 411.094V407.893C73.4986 407.523 73.6479 407.169 73.9104 406.907C74.173 406.646 74.5277 406.498 74.8981 406.496V406.496ZM243.528 182.903H245.743C246.279 182.903 246.71 183.339 246.71 183.87V186.086C246.71 186.621 246.274 187.053 245.743 187.053H243.528C243.271 187.052 243.026 186.95 242.845 186.769C242.664 186.587 242.561 186.342 242.56 186.086V183.87C242.56 183.743 242.585 183.617 242.634 183.5C242.682 183.382 242.753 183.275 242.843 183.186C242.933 183.096 243.04 183.024 243.157 182.976C243.275 182.927 243.4 182.903 243.528 182.903V182.903ZM251.21 182.903H253.425C253.681 182.904 253.927 183.007 254.108 183.188C254.289 183.369 254.391 183.614 254.392 183.87V186.086C254.392 186.621 253.956 187.053 253.425 187.053H251.21C250.953 187.052 250.708 186.95 250.527 186.769C250.346 186.587 250.243 186.342 250.243 186.086V183.87C250.243 183.339 250.678 182.903 251.21 182.903ZM258.897 182.903H261.112C261.644 182.903 262.08 183.339 262.08 183.87V186.086C262.08 186.621 261.644 187.053 261.112 187.053H258.897C258.64 187.052 258.395 186.95 258.214 186.769C258.033 186.587 257.931 186.342 257.93 186.086V183.87C257.929 183.743 257.954 183.617 258.003 183.5C258.051 183.382 258.122 183.275 258.212 183.186C258.302 183.096 258.409 183.024 258.526 182.976C258.644 182.927 258.77 182.903 258.897 182.903V182.903ZM266.579 182.903H268.794C269.326 182.903 269.762 183.339 269.762 183.87V186.086C269.762 186.621 269.326 187.053 268.794 187.053H266.579C266.322 187.053 266.076 186.951 265.894 186.77C265.712 186.588 265.609 186.343 265.607 186.086V183.87C265.61 183.614 265.713 183.369 265.895 183.188C266.077 183.007 266.322 182.905 266.579 182.903ZM274.261 182.903H276.477C277.013 182.903 277.449 183.339 277.449 183.87V186.086C277.449 186.621 277.013 187.053 276.477 187.053H274.261C274.005 187.052 273.76 186.95 273.579 186.769C273.397 186.587 273.295 186.342 273.294 186.086V183.87C273.294 183.339 273.73 182.903 274.261 182.903ZM251.491 191.281H253.707C254.238 191.281 254.674 191.716 254.674 192.248V194.468C254.674 194.999 254.238 195.435 253.707 195.435H251.491C251.235 195.435 250.989 195.333 250.808 195.151C250.626 194.97 250.524 194.724 250.524 194.468V192.252C250.523 192.125 250.548 191.998 250.596 191.88C250.644 191.762 250.715 191.655 250.805 191.565C250.895 191.475 251.002 191.403 251.12 191.354C251.238 191.305 251.364 191.28 251.491 191.281V191.281ZM259.173 191.281H261.389C261.92 191.281 262.356 191.716 262.356 192.248V194.468C262.356 194.999 261.92 195.435 261.389 195.435H259.173C258.917 195.434 258.672 195.332 258.49 195.151C258.309 194.969 258.207 194.724 258.206 194.468V192.252C258.205 192.125 258.23 191.998 258.278 191.88C258.326 191.762 258.397 191.655 258.487 191.565C258.577 191.475 258.684 191.403 258.802 191.354C258.92 191.305 259.046 191.28 259.173 191.281V191.281ZM266.856 191.281H269.072C269.607 191.281 270.044 191.716 270.044 192.248V194.468C270.042 194.725 269.939 194.971 269.757 195.152C269.575 195.333 269.329 195.435 269.072 195.435H266.856C266.6 195.434 266.354 195.332 266.173 195.151C265.992 194.969 265.89 194.724 265.889 194.468V192.252C265.889 191.995 265.991 191.749 266.172 191.567C266.353 191.385 266.599 191.282 266.856 191.281ZM258.897 173.904H261.112C261.644 173.904 262.08 174.339 262.08 174.871V177.087C262.08 177.622 261.644 178.054 261.112 178.054H258.897C258.64 178.053 258.395 177.951 258.214 177.769C258.033 177.588 257.931 177.343 257.93 177.087V174.871C257.929 174.744 257.954 174.618 258.003 174.5C258.051 174.383 258.122 174.276 258.212 174.186C258.302 174.097 258.409 174.025 258.526 173.977C258.644 173.928 258.77 173.904 258.897 173.904ZM266.579 173.904H268.794C269.326 173.904 269.762 174.339 269.762 174.871V177.087C269.762 177.622 269.326 178.054 268.794 178.054H266.579C266.322 178.054 266.076 177.952 265.894 177.771C265.712 177.589 265.609 177.343 265.607 177.087V174.871C265.61 174.614 265.713 174.369 265.895 174.188C266.077 174.008 266.322 173.905 266.579 173.904Z" fill="#E1E4E5"/>
</svg>
