<svg width="600" height="600" viewBox="0 0 600 600" fill="none" xmlns="http://www.w3.org/2000/svg">
<rect width="600" height="600" fill="#CBD0D0"/>
<path fill-rule="evenodd" clip-rule="evenodd" d="M402.261 168C432.038 168 456.396 192.173 456.396 221.722C456.396 251.272 432.038 275.445 402.261 275.445C396.288 275.445 391.395 280.3 391.395 286.228C391.395 292.156 396.288 297.01 402.261 297.01H430.588C445.114 297.01 457 308.807 457 323.222C457 337.636 445.114 349.432 430.588 349.432C418.025 349.432 407.745 359.634 407.745 372.101C407.745 394.848 388.992 413.458 366.07 413.458H121.424C91.6477 413.458 67.2889 389.285 67.2889 359.736C67.2889 330.186 91.6477 306.014 121.424 306.014H126.661C132.635 306.014 137.527 301.164 137.527 295.23C137.527 289.303 132.64 284.448 126.661 284.448H91.4124C76.8858 284.448 65 272.651 65 258.237C65 243.839 76.8563 232.056 91.3573 232.026H119.721C132.284 232.026 142.564 221.824 142.564 209.357C142.564 186.611 161.317 168 184.239 168H402.261V168Z" fill="url(#paint0_linear_419_1205)"/>
<path d="M296.911 285.651L287.11 282.67L244.501 281.416L234.891 284.039L236.145 307.454L257.885 321.324L278.971 320.902L292.228 308.823L295.171 296.847L296.911 285.651Z" fill="#F8AE9D"/>
<path d="M173.896 323.307C176.979 316.948 179.935 311.842 182.571 307.812C187.746 299.87 195.661 294.109 204.809 291.626L239.561 282.208C239.561 282.208 241.366 316.935 265.267 316.935C289.169 316.935 293.827 284.371 293.827 284.371L334.042 300.416C335.424 300.953 344.752 304.178 355.602 327.452C365.941 349.614 370.458 360.964 370.458 360.964L329.026 372.927L326.442 410.187L327.324 431.466L201.572 431.185L202.275 406.86L201.751 369.562L200.177 372.108L158.324 355.321C158.324 355.321 163.711 344.266 173.896 323.307V323.307Z" fill="#B6B9B3"/>
<path d="M269.329 298.04C259.13 297.851 247.543 277.957 247.543 277.957L246.878 226.854C246.345 212.135 255.5 199.594 272.003 199.526L273.535 199.594C288.894 200.328 301.058 211.452 301.469 225.161C301.857 237.92 302.09 252.015 301.591 258.824C300.547 272.919 284.467 270.54 284.467 270.54C284.433 270.54 284.51 277.64 284.467 281.788C284.344 291.101 273.424 298.356 269.329 298.04Z" fill="#F8AE9D"/>
<path d="M251.974 229.658C251.693 229.523 240.707 225.855 240.462 236.706C240.216 247.557 251.717 245.556 251.74 245.244C251.763 244.933 251.974 229.658 251.974 229.658V229.658ZM366.889 362L383.74 395.819C385.623 399.597 386.504 403.796 386.3 408.012C385.66 421.14 374.822 431.467 361.682 431.467L312.96 430.701L311.242 406.618L348.016 397.751L334.081 371.405L366.889 362V362ZM160.461 356.179C160.461 356.179 150.008 387.233 138.607 415.46C138.376 416.022 138.121 417.072 137.916 417.648C135.344 424.647 143.085 431.467 150.904 431.467L216.787 431.352V409.932L175.803 401.231L190.646 368.27L160.461 356.179Z" fill="#F8AE9D"/>
<path d="M292.509 408.946C292.496 409.023 290.999 408.55 288.504 408.396C286.022 408.23 282.503 408.511 278.997 410.008C275.491 411.506 272.842 413.847 271.256 415.753C269.644 417.66 268.953 419.08 268.889 419.029C268.863 419.016 269.017 418.658 269.362 418.044C269.707 417.429 270.258 416.56 271.038 415.574C272.599 413.591 275.261 411.16 278.843 409.637C282.426 408.115 286.022 407.859 288.529 408.115C289.784 408.23 290.794 408.434 291.473 408.614C292.151 408.779 292.522 408.921 292.509 408.946V408.946ZM290.257 403.764C290.231 403.867 288.709 403.112 286.086 403.034C283.475 402.92 279.803 403.713 276.374 405.786C272.945 407.872 270.373 410.508 268.556 412.401C267.686 413.322 266.969 414.09 266.406 414.679C265.895 415.216 265.613 415.51 265.587 415.484C265.562 415.472 265.818 415.139 266.291 414.576C266.958 413.774 267.64 412.985 268.338 412.209C270.117 410.264 272.676 407.564 276.169 405.44C279.663 403.329 283.437 402.561 286.098 402.754C287.429 402.83 288.491 403.073 289.195 403.316C289.553 403.418 289.809 403.547 289.989 403.623C290.167 403.7 290.257 403.751 290.257 403.764Z" fill="#EB996E"/>
<path d="M202.928 406.003H212.385C212.385 406.003 233.727 398.288 238.116 399.03C242.07 399.695 256.541 409.305 259.381 411.211C259.701 411.429 259.932 411.723 260.072 412.081C260.351 412.834 260.326 413.665 260.004 414.4C259.682 415.135 259.087 415.717 258.345 416.022L258.051 416.15L258.179 416.585C258.345 417.123 258.422 417.724 258.396 418.313C258.294 420.347 255.556 420.961 254.52 419.208L255.07 420.181C255.287 420.577 255.403 421.025 255.376 421.473L255.325 422.356C255.298 422.834 255.127 423.292 254.835 423.671C254.542 424.05 254.143 424.332 253.687 424.48C253.255 424.624 252.79 424.639 252.349 424.523C251.909 424.407 251.511 424.165 251.205 423.827C249.376 421.806 245.409 417.762 242.722 417.315C240.342 416.918 236.363 416.866 233.958 416.879C233.361 416.88 232.78 417.062 232.288 417.4C231.797 417.738 231.42 418.217 231.207 418.773C232.793 418.888 243.886 424.671 247.815 426.745C249.031 427.385 249.938 428.536 250.092 429.905C250.233 431.134 249.619 432.426 247.188 431.85C241.968 430.634 232.588 426.322 232.588 426.322C232.588 426.322 227.751 424.94 224.617 427.154C220.202 430.263 218.181 431.402 214.394 430.148C210.606 428.894 207.816 427.09 207.816 427.09L200.357 426.348C200.331 426.348 193.281 408.716 202.928 406.003V406.003Z" fill="#F8AE9D"/>
<path d="M231.116 409.612C231.13 409.688 232.627 409.215 235.122 409.061C237.604 408.895 241.123 409.177 244.629 410.674C248.135 412.171 250.783 414.513 252.37 416.419C253.983 418.325 254.673 419.746 254.737 419.695C254.763 419.682 254.609 419.324 254.263 418.709C253.77 417.844 253.209 417.018 252.587 416.24C251.027 414.257 248.365 411.826 244.782 410.303C241.199 408.78 237.604 408.524 235.096 408.78C234.103 408.866 233.119 409.033 232.154 409.279C231.475 409.459 231.104 409.586 231.116 409.612V409.612ZM233.369 404.43C233.394 404.532 234.916 403.777 237.54 403.7C240.15 403.585 243.822 404.378 247.251 406.452C250.68 408.537 253.253 411.173 255.069 413.066C255.94 413.988 256.656 414.755 257.219 415.344C257.731 415.882 258.012 416.175 258.038 416.15C258.063 416.137 257.808 415.804 257.334 415.242C256.668 414.439 255.986 413.65 255.287 412.875C253.509 410.93 250.949 408.23 247.456 406.106C243.963 403.994 240.188 403.227 237.527 403.419C236.196 403.496 235.134 403.738 234.431 403.982C234.072 404.085 233.816 404.212 233.638 404.289C233.458 404.365 233.369 404.417 233.369 404.43V404.43Z" fill="#EB996E"/>
<path d="M215.724 432.068H315.003C316.361 432.07 317.667 431.545 318.647 430.606C319.627 429.666 320.206 428.384 320.262 427.027L323.243 358.699C323.371 355.705 320.979 353.197 317.985 353.197H212.934C209.94 353.197 207.547 355.692 207.663 358.686L210.452 427.027C210.567 429.842 212.896 432.068 215.724 432.068Z" fill="#C26148"/>
<path d="M255.427 393.897C255.426 395.23 255.688 396.551 256.198 397.783C256.708 399.016 257.455 400.135 258.398 401.078C259.341 402.021 260.461 402.769 261.693 403.279C262.925 403.789 264.246 404.051 265.579 404.05C266.913 404.051 268.234 403.789 269.466 403.279C270.699 402.769 271.818 402.022 272.761 401.079C273.704 400.136 274.452 399.016 274.962 397.784C275.472 396.551 275.734 395.23 275.732 393.897C275.733 392.563 275.472 391.243 274.962 390.01C274.452 388.778 273.704 387.658 272.761 386.716C271.818 385.773 270.698 385.025 269.466 384.515C268.234 384.005 266.913 383.743 265.579 383.745C259.966 383.745 255.427 388.307 255.427 393.897Z" fill="white"/>
<path d="M255.813 249.427H246.856V287.813H255.813V249.427Z" fill="#F8AE9D"/>
<path d="M252.296 215.128C253.91 217.211 256.757 217.669 259.101 218.082C262.253 218.635 263.813 219.788 265.449 222.882C266.484 224.859 267.521 227.024 269.375 228.095C270.882 228.969 270.828 226.74 271.066 225.014C271.089 224.861 271.12 224.71 271.159 224.56C271.523 223.182 272.991 223.417 273.421 224.776C273.813 226 274.653 227.036 275.722 227.612C275.896 227.706 276.082 227.788 276.267 227.753C276.518 227.718 276.714 227.483 276.878 227.271C277.221 226.828 277.561 226.264 277.913 225.668C279.069 223.707 281.258 224.408 282.549 226.283C283.356 227.447 284.316 228.647 285.635 228.918C286.06 229.012 286.595 228.942 286.791 228.53C287.042 228.024 286.65 227.518 286.715 227C286.77 226.518 286.977 226.306 287.206 225.894C288.104 224.296 290.161 224.239 291.426 225.566C292.306 226.489 293.223 227.376 294.175 228.224C294.578 228.577 295.167 228.93 295.57 228.577C295.789 228.389 295.843 228.071 295.887 227.765C296.116 226.271 296.334 224.776 296.563 223.282C296.694 222.447 297.141 221.352 297.905 221.564C298.275 221.671 298.493 222.058 298.7 222.412C298.951 222.858 303.434 227.953 303.52 227.565C304.219 224.67 305.647 222.035 306.346 219.141C310.86 200.515 290.826 185.537 275.525 185.455C272.123 185.431 269.015 185.487 265.711 186.275C262.187 187.122 258.469 188.467 255.274 190.361C250.791 193.008 247.399 197.821 248.272 203.563" fill="#444642"/>
<path d="M260.342 208.832C262.594 211.304 263.19 214.782 263.399 218.068C263.708 223.022 263.289 228.169 260.927 232.568C260.254 233.82 259.757 240.016 258.72 239.674C258.389 239.567 258.444 234.762 257.572 232.172C256.225 228.159 250.023 226.629 247.231 229.165C242.773 233.2 245.388 238.101 246.867 241.151C247.75 242.991 249.151 245.057 249.395 247.004C249.692 249.498 249.781 258.584 248.103 260.703C246.701 262.479 245.212 253.897 243.942 252.205C234.551 239.61 225.545 207.537 241.581 200.581C244.02 199.522 251.546 198.976 253.831 200.324" fill="#444642"/>
<path fill-rule="evenodd" clip-rule="evenodd" d="M364.533 217.041H367.519C368.241 217.041 368.822 216.454 368.822 215.737V212.751C368.822 212.029 368.235 211.447 367.519 211.447H364.533C364.187 211.449 363.856 211.586 363.612 211.831C363.368 212.075 363.23 212.406 363.229 212.751V215.737C363.229 215.909 363.262 216.078 363.327 216.237C363.393 216.395 363.489 216.539 363.61 216.66C363.731 216.781 363.875 216.877 364.033 216.943C364.192 217.008 364.361 217.041 364.533 217.041V217.041ZM374.887 217.041H377.874C378.219 217.04 378.55 216.902 378.794 216.658C379.038 216.413 379.176 216.083 379.177 215.737V212.751C379.177 212.029 378.59 211.447 377.874 211.447H374.887C374.542 211.449 374.211 211.586 373.967 211.831C373.723 212.075 373.585 212.406 373.584 212.751V215.737C373.585 216.083 373.723 216.413 373.967 216.658C374.211 216.902 374.542 217.04 374.887 217.041V217.041ZM385.249 217.041H388.235C388.58 217.04 388.911 216.902 389.155 216.658C389.399 216.413 389.537 216.083 389.538 215.737V212.751C389.538 212.029 388.951 211.447 388.235 211.447H385.249C384.903 211.449 384.572 211.586 384.328 211.831C384.084 212.075 383.946 212.406 383.945 212.751V215.737C383.945 215.909 383.978 216.078 384.043 216.237C384.109 216.395 384.205 216.539 384.326 216.66C384.447 216.781 384.591 216.877 384.749 216.943C384.908 217.008 385.077 217.041 385.249 217.041V217.041ZM395.603 217.041H398.59C398.935 217.04 399.266 216.902 399.51 216.658C399.754 216.413 399.892 216.083 399.893 215.737V212.751C399.893 212.029 399.306 211.447 398.59 211.447H395.603C394.881 211.447 394.293 212.035 394.293 212.751V215.737C394.297 216.083 394.437 216.413 394.682 216.657C394.927 216.901 395.258 217.039 395.603 217.041V217.041ZM405.959 217.041H408.945C409.667 217.041 410.255 216.454 410.255 215.737V212.751C410.255 212.029 409.667 211.447 408.945 211.447H405.959C405.614 211.449 405.283 211.586 405.039 211.831C404.794 212.075 404.657 212.406 404.655 212.751V215.737C404.657 216.083 404.794 216.413 405.039 216.658C405.283 216.902 405.614 217.04 405.959 217.041V217.041ZM375.267 205.75H378.253C378.969 205.75 379.557 205.162 379.557 204.447V201.453C379.556 201.108 379.418 200.777 379.174 200.533C378.929 200.289 378.599 200.152 378.253 200.15H375.267C374.544 200.15 373.964 200.738 373.964 201.453V204.44C373.962 204.612 373.995 204.782 374.061 204.941C374.126 205.1 374.221 205.245 374.343 205.367C374.464 205.488 374.608 205.585 374.767 205.651C374.925 205.717 375.095 205.75 375.267 205.75V205.75ZM385.622 205.75H388.608C388.954 205.749 389.284 205.611 389.529 205.367C389.773 205.123 389.911 204.792 389.912 204.447V201.453C389.91 201.108 389.773 200.777 389.528 200.533C389.284 200.289 388.953 200.152 388.608 200.15H385.622C385.277 200.152 384.946 200.289 384.702 200.533C384.458 200.777 384.32 201.108 384.318 201.453V204.44C384.317 204.612 384.35 204.782 384.415 204.941C384.48 205.1 384.576 205.245 384.697 205.367C384.819 205.488 384.963 205.585 385.121 205.651C385.28 205.717 385.45 205.75 385.622 205.75V205.75ZM395.977 205.75H398.963C399.686 205.75 400.273 205.162 400.273 204.447V201.453C400.273 200.738 399.686 200.15 398.963 200.15H395.977C395.632 200.152 395.301 200.289 395.057 200.533C394.812 200.777 394.675 201.108 394.673 201.453V204.44C394.673 205.162 395.261 205.75 395.977 205.75V205.75ZM385.249 229.172H388.235C388.58 229.17 388.911 229.033 389.155 228.788C389.399 228.544 389.537 228.213 389.538 227.868V224.881C389.538 224.159 388.951 223.577 388.235 223.577H385.249C384.903 223.579 384.572 223.716 384.328 223.961C384.084 224.205 383.946 224.536 383.945 224.881V227.868C383.945 228.039 383.978 228.209 384.043 228.367C384.109 228.526 384.205 228.67 384.326 228.791C384.447 228.912 384.591 229.008 384.749 229.073C384.908 229.139 385.077 229.172 385.249 229.172V229.172ZM395.603 229.172H398.59C398.935 229.17 399.266 229.033 399.51 228.788C399.754 228.544 399.892 228.213 399.893 227.868V224.881C399.893 224.159 399.306 223.577 398.59 223.577H395.603C394.881 223.577 394.293 224.165 394.293 224.881V227.868C394.297 228.214 394.437 228.544 394.682 228.788C394.927 229.032 395.258 229.17 395.603 229.172V229.172Z" fill="#E1E4E5"/>
<path d="M414.034 287.288C414.218 281.55 415.52 275.683 417.813 270.199C447.671 280.672 438.922 268.371 420.857 264.204C425.717 256.071 433.09 249.474 442.737 246.421C454.42 242.729 468.267 251.137 477.199 263.547C463.15 269.377 466.139 287.928 480.702 269.048C483.618 274.275 485.617 279.905 486.295 285.516C488.001 299.333 481.637 312.894 461.04 318.926C427.845 328.703 413.301 308.91 414.034 287.288V287.288ZM434.906 280.233C426.139 280.489 438.409 290.304 444.975 285.552C449.083 282.555 443.69 279.977 434.906 280.233Z" fill="#888F82"/>
<path d="M469.055 428.422C470.504 316.55 442.755 246.439 442.755 246.439" stroke="#888F82" stroke-width="2.5" stroke-miterlimit="10"/>
<path d="M476.478 294.561C481.064 313.917 486.18 303.133 480.642 290.413C489.647 282.7 502.852 278.679 517.505 282.974C529.335 286.447 534.947 294.818 535.865 304.248C516.919 303.334 512.297 315.434 535.956 308.726C534.837 329.818 512.554 353.121 484.786 338.773C464.41 328.246 464.979 308.013 476.478 294.561ZM503.934 320.368C513.985 323.055 514.479 315.653 505.695 314.63C499.441 313.899 493.883 317.682 503.934 320.368Z" fill="#888F82"/>
<path d="M477.712 392.911C473.108 322.673 513.311 287.307 513.311 287.307" stroke="#888F82" stroke-width="2.5" stroke-miterlimit="10"/>
<path d="M397.374 335.895C387.617 323.174 387.378 302.357 394.879 296.142C401.978 290.258 411.038 289.544 419.768 291.957C417.548 305.19 428.369 311.002 425.783 294.15C446.123 303.234 461.327 327.853 438.695 340.025C421.455 349.273 409.13 346.989 401.116 339.953C430.313 338.088 415.366 330.211 397.374 335.895ZM405.004 314.493C396.493 316.996 397.686 319.665 407.113 320.378C416.522 321.091 415.99 311.294 405.004 314.493Z" fill="#888F82"/>
<path d="M452.843 392.27C455.649 322.671 400.701 297.229 400.701 297.229" stroke="#888F82" stroke-width="2.5" stroke-miterlimit="10"/>
<path d="M508.487 384.619H421.813L433.751 418.331C436.807 426.959 445.007 432.748 454.2 432.748H476.117C485.312 432.748 493.51 426.975 496.566 418.332L498.07 418.864L496.566 418.332L508.487 384.619V384.619Z" fill="white" stroke="#E1E4E5" stroke-width="4"/>
<path d="M520.727 383.438V378.239H410.649V383.438H520.727Z" fill="#E1E4E5" stroke="#E1E4E5" stroke-width="4"/>
<path d="M80.5561 385.303L84.2061 430.703H109.464L113.122 385.303H80.5561Z" fill="#B6B9B3"/>
<path d="M78.4667 381.209H115.597V387.826H78.4667V381.209ZM81.0109 381.209H113.053L111.183 373.769H82.8898L81.0109 381.209Z" fill="#888F82"/>
<path d="M89.6063 408.425C89.6061 409.4 89.798 410.366 90.1711 411.267C90.5442 412.168 91.0912 412.986 91.7808 413.676C92.4704 414.366 93.2892 414.913 94.1902 415.286C95.0913 415.659 96.057 415.851 97.0323 415.851C98.0076 415.851 98.9733 415.659 99.8744 415.286C100.775 414.913 101.594 414.366 102.284 413.676C102.973 412.986 103.52 412.168 103.893 411.267C104.267 410.366 104.459 409.4 104.458 408.425C104.459 407.449 104.267 406.483 103.894 405.582C103.521 404.681 102.974 403.863 102.284 403.173C101.594 402.483 100.776 401.936 99.8745 401.563C98.9734 401.19 98.0076 400.998 97.0323 400.999C96.057 400.998 95.0913 401.19 94.1902 401.563C93.2892 401.936 92.4704 402.483 91.7808 403.173C91.0912 403.863 90.5442 404.681 90.1711 405.582C89.798 406.484 89.6061 407.449 89.6063 408.425V408.425Z" fill="white"/>
<path fill-rule="evenodd" clip-rule="evenodd" d="M156.236 238.119V200.275C156.236 196.355 153.067 193.179 149.154 193.179H106.669C102.757 193.179 99.5878 196.355 99.5878 200.275V238.119C99.5874 239.384 99.9249 240.626 100.566 241.716C101.206 242.807 102.126 243.706 103.231 244.321L124.474 256.146C125.525 256.732 126.709 257.04 127.913 257.04C129.117 257.04 130.301 256.732 131.353 256.146L152.596 244.321C153.7 243.705 154.619 242.805 155.259 241.715C155.898 240.625 156.236 239.383 156.236 238.119Z" fill="#E1E4E5"/>
<path d="M139.686 235.188H116.137M139.686 224.472H116.137H139.686ZM139.686 213.439H116.137H139.686Z" stroke="white" stroke-width="2.677" stroke-linecap="round" stroke-linejoin="round"/>
<path d="M126.37 341.027L140.912 355.569C141.442 356.099 141.442 356.958 140.913 357.487C140.383 358.017 139.525 358.016 138.995 357.487L124.453 342.944C123.923 342.415 123.923 341.556 124.452 341.027C124.982 340.497 125.84 340.497 126.37 341.027Z" fill="#E1E4E5"/>
<path d="M127.794 351.439L131.988 355.633C132.518 356.162 132.518 357.021 131.988 357.551C131.459 358.08 130.6 358.08 130.071 357.55L125.877 353.356C125.347 352.827 125.347 351.968 125.877 351.439C126.406 350.909 127.265 350.909 127.794 351.439Z" fill="#E1E4E5"/>
<defs>
<linearGradient id="paint0_linear_419_1205" x1="252.642" y1="551.077" x2="257.381" y2="-99.0708" gradientUnits="userSpaceOnUse">
<stop stop-color="white"/>
<stop offset="1" stop-color="#EEEEEE"/>
</linearGradient>
</defs>
</svg>
